<svg width="83" height="83" viewBox="0 0 83 83" fill="none" xmlns="http://www.w3.org/2000/svg">
<circle cx="41.5" cy="41.5" r="41.5" fill="#005AFF"/>
<g clip-path="url(#clip0_12_402)">
<path d="M32.2552 30.7016C34.2218 30.7016 35.8218 29.1016 35.8218 27.135C35.8218 25.1684 34.2218 23.5685 32.2552 23.5685C30.2886 23.5685 28.6885 25.1684 28.6885 27.135C28.6885 29.1016 30.2885 30.7016 32.2552 30.7016ZM32.2552 24.9435C33.4636 24.9435 34.4468 25.9266 34.4468 27.135C34.4468 28.3435 33.4636 29.3266 32.2552 29.3266C31.0467 29.3266 30.0635 28.3435 30.0635 27.135C30.0635 25.9266 31.0466 24.9435 32.2552 24.9435ZM44.3176 31.7768C45.6381 31.7768 46.7125 30.7025 46.7125 29.3819C46.7125 28.0613 45.6381 26.987 44.3176 26.987C42.9971 26.987 41.9227 28.0613 41.9227 29.3819C41.9227 30.7025 42.9971 31.7768 44.3176 31.7768ZM44.3176 28.362C44.88 28.362 45.3375 28.8195 45.3375 29.3819C45.3375 29.9443 44.88 30.4018 44.3176 30.4018C43.7553 30.4018 43.2977 29.9443 43.2977 29.3819C43.2977 28.8195 43.7553 28.362 44.3176 28.362ZM35.1343 36.8364H27.7927C27.413 36.8364 27.1052 37.1443 27.1052 37.5239V44.4597C27.1052 44.8394 27.413 45.1472 27.7927 45.1472H35.1343C35.5139 45.1472 35.8218 44.8394 35.8218 44.4597V37.5239C35.8218 37.1443 35.5139 36.8364 35.1343 36.8364ZM34.4468 43.7722H28.4802V38.2114H34.4468V43.7722ZM38.5608 37.5239C38.5608 37.1443 38.8686 36.8364 39.2483 36.8364H46.025C46.4047 36.8364 46.7125 37.1443 46.7125 37.5239C46.7125 37.9036 46.4047 38.2114 46.025 38.2114H39.2483C38.8686 38.2114 38.5608 37.9036 38.5608 37.5239ZM38.5608 40.9919C38.5608 40.6122 38.8686 40.3044 39.2483 40.3044H46.025C46.4047 40.3044 46.7125 40.6122 46.7125 40.9919C46.7125 41.3715 46.4047 41.6794 46.025 41.6794H39.2483C38.8686 41.6794 38.5608 41.3715 38.5608 40.9919ZM59.2194 48.0382H59.2942V33.9455C59.2942 33.7045 59.1681 33.4812 58.9617 33.3567C58.7556 33.2323 58.4989 33.2251 58.2859 33.3374L53.2624 35.988H51.7407V34.3643C51.7407 32.9482 50.5886 31.7961 49.1725 31.7961H48.5892C48.9941 31.0827 49.2266 30.2591 49.2266 29.3818C49.2266 26.675 47.0244 24.4729 44.3176 24.4729C41.6109 24.4729 39.4087 26.675 39.4087 29.3818C39.4087 30.259 39.6412 31.0827 40.046 31.7961H37.6777C38.7564 30.5429 39.4108 28.9145 39.4108 27.135C39.4108 23.1894 36.2007 19.9794 32.2551 19.9794C28.3095 19.9794 25.0993 23.1894 25.0993 27.135C25.0993 28.9214 25.7588 30.5557 26.8452 31.8108C25.5572 31.9477 24.5504 33.0405 24.5504 34.3643V47.6194C24.5504 49.0355 25.7025 50.1876 27.1185 50.1876H27.9986V50.7597L20.341 50.4677C20.3322 50.4673 20.3235 50.4672 20.3148 50.4672C18.6193 50.4672 17.7322 51.6315 17.7322 52.7817C17.7322 53.9319 18.6192 55.0963 20.3148 55.0963C20.331 55.0963 20.3473 55.0957 20.3635 55.0946L29.363 54.4545C30.5354 54.371 31.4536 53.3852 31.4536 52.2099V50.1876H34.0915V51.3146C34.0915 52.0372 34.6589 52.6281 35.3715 52.6692V62.3339C35.3715 62.7136 35.6793 63.0214 36.059 63.0214H40.232C40.6117 63.0214 40.9195 62.7136 40.9195 62.3339V57.994C42.7505 61.0057 46.0633 63.0214 49.838 63.0214C55.5888 63.0214 60.2674 58.3428 60.2674 52.592C60.2674 50.9603 59.8903 49.415 59.2194 48.0383L59.2194 48.0382ZM54.1202 37.09L57.9192 35.0855V46.0067C56.9019 44.7607 55.603 43.753 54.1202 43.0826V37.09ZM51.7407 37.363H52.7452V42.5753C52.4166 42.4799 52.0816 42.4001 51.7407 42.337V37.363ZM44.3176 25.848C46.2663 25.848 47.8516 27.4332 47.8516 29.3819C47.8516 31.3305 46.2663 32.9158 44.3176 32.9158C42.369 32.9158 40.7837 31.3305 40.7837 29.3819C40.7837 27.4332 42.369 25.848 44.3176 25.848ZM26.4744 27.135C26.4744 23.9475 29.0677 21.3544 32.2552 21.3544C35.4427 21.3544 38.0359 23.9475 38.0359 27.135C38.0359 30.3225 35.4427 32.9158 32.2552 32.9158C29.0677 32.9158 26.4744 30.3225 26.4744 27.135ZM30.0787 52.2098C30.0787 52.6669 29.7216 53.0504 29.2656 53.0828L20.292 53.7211C19.4181 53.7125 19.1073 53.2113 19.1073 52.7817C19.1073 52.3521 19.4206 51.8468 20.3026 51.8422L28.0034 52.1358C28.359 52.1518 28.7112 52.0191 28.9686 51.7727C29.226 51.5263 29.3736 51.1808 29.3736 50.8245V48.0381C29.3736 47.6692 29.5945 47.6141 29.7261 47.6141C29.8578 47.6141 30.0787 47.6692 30.0787 48.0381V52.2098ZM39.5446 61.6463H36.7465V52.6731H39.4097C39.4139 53.2166 39.4598 53.7503 39.5446 54.2713V61.6463ZM39.4889 51.2982H35.4667V50.1876H39.6889C39.6029 50.5509 39.5357 50.9214 39.4889 51.2982ZM40.1177 48.8125H31.4538V48.0381C31.4538 46.8696 30.5638 46.2391 29.7262 46.2391C28.8887 46.2391 27.9987 46.8696 27.9987 48.0381V48.8125H27.1186C26.4608 48.8125 25.9255 48.2773 25.9255 47.6194V34.3642C25.9255 33.7063 26.4608 33.171 27.1186 33.171H28.405V33.1618C29.5176 33.875 30.8383 34.2907 32.2552 34.2907C33.672 34.2907 34.9814 33.8787 36.0909 33.1711H41.2004C42.0488 33.8703 43.135 34.2907 44.3176 34.2907C45.5002 34.2907 46.5865 33.8702 47.4348 33.1711H49.1725C49.8303 33.1711 50.3657 33.7063 50.3657 34.3643V42.1759C50.1909 42.1671 50.015 42.1627 49.8381 42.1627C47.7954 42.1627 45.8885 42.7534 44.278 43.7723H39.2483C38.8686 43.7723 38.5608 44.0801 38.5608 44.4598C38.5608 44.8395 38.8686 45.1473 39.2483 45.1473H42.5422C41.4936 46.1751 40.6605 47.4216 40.1178 48.8126L40.1177 48.8125ZM49.8381 61.6463C44.8455 61.6463 40.7837 57.5845 40.7837 52.592C40.7837 47.5994 44.8455 43.5376 49.8381 43.5376C54.8306 43.5376 58.8925 47.5993 58.8925 52.592C58.8925 57.5846 54.8306 61.6463 49.8381 61.6463ZM52.5239 48.9146C52.4648 48.9146 52.4129 48.8769 52.3946 48.8207L51.275 45.3751C51.069 44.7409 50.505 44.3311 49.8381 44.3311C49.1712 44.3311 48.6072 44.741 48.4011 45.3751L47.2816 48.8206C47.2633 48.8768 47.2114 48.9146 47.1523 48.9146H43.5294C42.8625 48.9146 42.2986 49.3244 42.0924 49.9586C41.8865 50.5928 42.1018 51.2559 42.6413 51.6479L45.5722 53.7773C45.6201 53.812 45.6399 53.8732 45.6216 53.9293L44.5021 57.3749C44.2961 58.0091 44.5115 58.6722 45.051 59.0642C45.5907 59.4563 46.2879 59.4561 46.8273 59.0642L49.7582 56.9347C49.806 56.9 49.8701 56.9 49.9179 56.9347L52.8488 59.0642C53.1187 59.2602 53.4277 59.3582 53.7369 59.3582C54.0461 59.3582 54.3553 59.2601 54.6251 59.0642C55.1645 58.6722 55.3799 58.0091 55.1739 57.3749L54.0544 53.9295C54.0362 53.8733 54.0561 53.8121 54.1038 53.7774L57.0347 51.6479C57.5742 51.256 57.7896 50.5929 57.5836 49.9587C57.3776 49.3244 56.8135 48.9147 56.1467 48.9147H52.5238L52.5239 48.9146ZM56.276 50.3835C56.3064 50.4775 56.2485 50.5197 56.2267 50.5356L53.2956 52.6651C52.7645 53.051 52.544 53.7299 52.7468 54.3544L53.8663 57.7999C53.8747 57.8256 53.8968 57.8939 53.8169 57.9519C53.737 58.01 53.679 57.9677 53.6571 57.9519L50.7262 55.8224C50.4606 55.6294 50.1494 55.533 49.8382 55.533C49.5269 55.533 49.2157 55.6295 48.9501 55.8224L46.0192 57.9519C45.9974 57.9677 45.9393 58.01 45.8594 57.9519C45.7794 57.8939 45.8017 57.8256 45.81 57.7999L46.9295 54.3543C47.1323 53.7299 46.9118 53.051 46.3806 52.6651L43.4497 50.5357C43.4278 50.5198 43.3698 50.4776 43.4003 50.3836C43.4308 50.2897 43.5025 50.2897 43.5296 50.2897H47.1524C47.809 50.2897 48.3864 49.8701 48.5895 49.2457L49.709 45.8001C49.7174 45.7745 49.7395 45.7062 49.8383 45.7062C49.937 45.7062 49.9591 45.7745 49.9675 45.8001L51.087 49.2458C51.29 49.8702 51.8675 50.2897 52.5241 50.2897H56.1469C56.1739 50.2897 56.2456 50.2897 56.2762 50.3836L56.276 50.3835Z" fill="white"/>
</g>
<defs>
<clipPath id="clip0_12_402">
<rect width="44" height="44" fill="white" transform="translate(17 19.5)"/>
</clipPath>
</defs>
</svg>
