<svg width="76" height="76" viewBox="0 0 76 76" fill="none" xmlns="http://www.w3.org/2000/svg">
<path d="M19.608 11.6216L62.5733 35.7928C62.9647 36.0133 63.2904 36.3339 63.5171 36.7217C63.7438 37.1096 63.8632 37.5507 63.8632 37.9999C63.8632 38.4492 63.7438 38.8903 63.5171 39.2782C63.2904 39.666 62.9647 39.9866 62.5733 40.2071L19.608 64.3783C19.2224 64.595 18.7867 64.7071 18.3443 64.7031C17.9019 64.6992 17.4683 64.5796 17.0866 64.356C16.7048 64.1325 16.3882 63.8129 16.1684 63.429C15.9485 63.0451 15.833 62.6103 15.8333 62.1679V13.8319C15.8336 13.3898 15.9495 12.9555 16.1696 12.572C16.3897 12.1886 16.7063 11.8694 17.0879 11.6462C17.4696 11.4231 17.903 11.3037 18.3451 11.2999C18.7872 11.2961 19.2226 11.405 19.608 11.6216Z" fill="white"/>
</svg>
