<svg width="83" height="83" viewBox="0 0 83 83" fill="none" xmlns="http://www.w3.org/2000/svg">
<circle cx="41.5" cy="41.5" r="41.5" fill="#005AFF"/>
<path d="M58.875 47.6875H60.25V54.5625H58.875V47.6875Z" fill="white"/>
<path d="M31.375 27.0625H23.2969C22.8868 27.063 22.4936 27.2261 22.2036 27.5161C21.9136 27.8061 21.7505 28.1993 21.75 28.6094V36.6875H23.125V32.5625H29.611L30.741 35.3125L29.3641 38.6632C29.3021 38.814 29.2957 38.9819 29.3461 39.137C29.3964 39.2921 29.5003 39.4242 29.6391 39.5098L32.7002 41.3969L33.5348 44.9228C33.5724 45.0826 33.666 45.2237 33.7987 45.3204C33.9314 45.4171 34.0944 45.463 34.258 45.4498L34.8125 45.406V54.5625C34.8125 54.6852 34.8453 54.8057 34.9076 54.9115C34.9699 55.0172 35.0594 55.1043 35.1667 55.1638C35.2741 55.2233 35.3954 55.253 35.518 55.2498C35.6407 55.2466 35.7603 55.2106 35.8644 55.1455L41 51.9357L46.1356 55.1455C46.2397 55.2106 46.3593 55.2466 46.482 55.2498C46.6046 55.253 46.7259 55.2233 46.8333 55.1638C46.9406 55.1043 47.0301 55.0172 47.0924 54.9115C47.1547 54.8057 47.1875 54.6852 47.1875 54.5625V45.4059L47.742 45.4497C47.9056 45.463 48.0686 45.4171 48.2014 45.3204C48.3341 45.2237 48.4277 45.0826 48.4652 44.9227L49.2998 41.3968L52.3609 39.5098C52.4997 39.4242 52.6036 39.2921 52.6539 39.137C52.7043 38.9819 52.6979 38.814 52.6359 38.6632L51.259 35.3125L52.389 32.5625H58.875V46.3125H60.25V28.6094C60.2495 28.1993 60.0864 27.8061 59.7964 27.5161C59.5064 27.2261 59.1132 27.063 58.7031 27.0625H50.625V28.4375H58.7031C58.7487 28.4375 58.7924 28.4556 58.8247 28.4879C58.8569 28.5201 58.875 28.5638 58.875 28.6094V31.1875H52.4579C52.4277 31.1606 52.3952 31.1364 52.3608 31.1152L49.2998 29.2281L48.4652 25.7022C48.4277 25.5424 48.334 25.4013 48.2013 25.3046C48.0686 25.2079 47.9056 25.162 47.742 25.1752L44.1718 25.4575L41.4495 23.1048C41.3246 22.9969 41.1651 22.9375 41 22.9375C40.8349 22.9375 40.6754 22.9969 40.5505 23.1048L37.8281 25.4575L34.258 25.1753C34.0944 25.1622 33.9314 25.2081 33.7987 25.3048C33.666 25.4014 33.5724 25.5425 33.5348 25.7023L32.7002 29.2281L29.6391 31.1152C29.6047 31.1365 29.5722 31.1607 29.542 31.1875H23.125V28.6094C23.125 28.5638 23.1431 28.5201 23.1753 28.4879C23.2076 28.4556 23.2513 28.4375 23.2969 28.4375H31.375V27.0625ZM45.8125 53.3221L41.3644 50.542C41.2551 50.4737 41.1289 50.4375 41 50.4375C40.8711 50.4375 40.7449 50.4737 40.6356 50.542L36.1875 53.3221V45.2972L37.8282 45.1675L40.5505 47.5202C40.6754 47.6281 40.8349 47.6875 41 47.6875C41.1651 47.6875 41.3246 47.6281 41.4495 47.5202L44.1719 45.1675L45.8125 45.2972V53.3221ZM32.1202 35.0512L30.8578 31.9793L33.6645 30.2492C33.7414 30.2018 33.8082 30.1397 33.8611 30.0664C33.914 29.9932 33.9519 29.9102 33.9727 29.8223L34.737 26.5924L38.0061 26.8509C38.0968 26.8582 38.1881 26.8473 38.2746 26.819C38.3611 26.7906 38.4411 26.7453 38.5099 26.6858L41 24.5337L43.49 26.6858C43.5589 26.7453 43.6388 26.7906 43.7253 26.819C43.8118 26.8473 43.9031 26.8582 43.9938 26.8509L47.263 26.5924L48.0273 29.8223C48.0481 29.9102 48.086 29.9932 48.1389 30.0664C48.1918 30.1397 48.2586 30.2018 48.3355 30.2492L51.1422 31.9793L49.8797 35.0512C49.8109 35.2186 49.8109 35.4064 49.8797 35.5739L51.1422 38.6458L48.3355 40.3759C48.2586 40.4233 48.1918 40.4854 48.1389 40.5586C48.086 40.6319 48.0481 40.7148 48.0273 40.8027L47.263 44.0326L43.9939 43.7741C43.9032 43.7668 43.8119 43.7777 43.7254 43.806C43.6389 43.8344 43.5589 43.8797 43.4901 43.9393L41 46.0913L38.51 43.9393C38.3851 43.8313 38.2255 43.7719 38.0604 43.7719C38.0425 43.7719 38.0243 43.7726 38.0062 43.7741L34.737 44.0326L33.9727 40.8027C33.9519 40.7148 33.914 40.6319 33.8611 40.5586C33.8082 40.4854 33.7414 40.4233 33.6645 40.3759L30.8578 38.6458L32.1202 35.5739C32.1891 35.4064 32.1891 35.2186 32.1202 35.0512Z" fill="white"/>
<path d="M21.75 38.0625H23.125V54.5625H21.75V38.0625Z" fill="white"/>
<path d="M24.5 29.125H25.875V30.5H24.5V29.125Z" fill="white"/>
<path d="M27.25 29.125H28.625V30.5H27.25V29.125Z" fill="white"/>
<path d="M56.125 29.125H57.5V30.5H56.125V29.125Z" fill="white"/>
<path d="M60.9375 55.9375H47.875C47.7683 55.9375 47.663 55.9624 47.5675 56.0101L46.3377 56.625H35.6623L34.4325 56.0101C34.337 55.9624 34.2317 55.9375 34.125 55.9375H21.0625C20.8802 55.9375 20.7053 56.0099 20.5764 56.1389C20.4474 56.2678 20.375 56.4427 20.375 56.625V58.3438C20.3757 58.9817 20.6295 59.5933 21.0806 60.0444C21.5317 60.4955 22.1433 60.7493 22.7812 60.75H46.5V59.375H22.7812C22.5078 59.3747 22.2457 59.266 22.0524 59.0726C21.859 58.8793 21.7503 58.6172 21.75 58.3438V57.3125H33.9627L35.1925 57.9274C35.288 57.9751 35.3933 58 35.5 58H46.5C46.6067 58 46.712 57.9751 46.8075 57.9274L48.0373 57.3125H60.25V58.3438C60.2497 58.6172 60.141 58.8793 59.9476 59.0726C59.7543 59.266 59.4922 59.3747 59.2188 59.375H47.875V60.75H59.2188C59.8567 60.7493 60.4683 60.4955 60.9194 60.0444C61.3705 59.5933 61.6243 58.9817 61.625 58.3438V56.625C61.625 56.4427 61.5526 56.2678 61.4236 56.1389C61.2947 56.0099 61.1198 55.9375 60.9375 55.9375Z" fill="white"/>
<path d="M41 42.875C42.4957 42.875 43.9579 42.4315 45.2015 41.6005C46.4451 40.7695 47.4145 39.5884 47.9868 38.2065C48.5592 36.8247 48.709 35.3041 48.4172 33.8371C48.1254 32.3702 47.4051 31.0226 46.3475 29.965C45.2899 28.9074 43.9424 28.1871 42.4754 27.8953C41.0084 27.6035 39.4878 27.7533 38.106 28.3257C36.7241 28.8981 35.543 29.8674 34.712 31.111C33.881 32.3547 33.4375 33.8168 33.4375 35.3125C33.4398 37.3175 34.2373 39.2397 35.655 40.6575C37.0728 42.0752 38.995 42.8727 41 42.875ZM41 29.125C42.2238 29.125 43.4201 29.4879 44.4376 30.1678C45.4551 30.8477 46.2482 31.814 46.7165 32.9446C47.1848 34.0753 47.3074 35.3194 47.0686 36.5196C46.8299 37.7199 46.2406 38.8224 45.3752 39.6877C44.5099 40.5531 43.4074 41.1424 42.2071 41.3811C41.0069 41.6199 39.7628 41.4973 38.6321 41.029C37.5015 40.5607 36.5352 39.7676 35.8553 38.7501C35.1754 37.7326 34.8125 36.5363 34.8125 35.3125C34.8143 33.672 35.4668 32.0993 36.6268 30.9393C37.7868 29.7793 39.3595 29.1268 41 29.125Z" fill="white"/>
<path d="M37.8885 39.3348C37.9882 39.3964 38.102 39.4315 38.2191 39.4368C38.3362 39.442 38.4527 39.4173 38.5575 39.3649L45.4325 35.9274C45.5467 35.8703 45.6427 35.7825 45.7098 35.6739C45.7769 35.5653 45.8125 35.4401 45.8125 35.3125C45.8125 35.1848 45.7769 35.0597 45.7098 34.9511C45.6427 34.8425 45.5467 34.7547 45.4325 34.6976L42.6825 33.3226L42.0675 34.5524L43.5877 35.3125L38.9375 37.6376V32.9874L40.6925 33.8649L41.3075 32.6351L38.5575 31.2601C38.4527 31.2077 38.3362 31.1829 38.2191 31.1882C38.1021 31.1935 37.9883 31.2286 37.8886 31.2902C37.7889 31.3518 37.7066 31.4378 37.6495 31.5402C37.5925 31.6425 37.5625 31.7578 37.5625 31.875V38.75C37.5625 38.8672 37.5925 38.9824 37.6495 39.0848C37.7066 39.1871 37.7889 39.2732 37.8885 39.3348Z" fill="white"/>
<path d="M28.625 35.3125V33.9375H25.1875C25.0052 33.9375 24.8303 34.0099 24.7014 34.1389C24.5724 34.2678 24.5 34.4427 24.5 34.625V53.875C24.5 54.0573 24.5724 54.2322 24.7014 54.3611C24.8303 54.4901 25.0052 54.5625 25.1875 54.5625H33.4375V53.1875H25.875V35.3125H28.625Z" fill="white"/>
<path d="M48.5625 53.1875V54.5625H56.8125C56.9948 54.5625 57.1697 54.4901 57.2986 54.3611C57.4276 54.2322 57.5 54.0573 57.5 53.875V34.625C57.5 34.4427 57.4276 34.2678 57.2986 34.1389C57.1697 34.0099 56.9948 33.9375 56.8125 33.9375H53.375V35.3125H56.125V53.1875H48.5625Z" fill="white"/>
</svg>
