<svg width="83" height="83" viewBox="0 0 83 83" fill="none" xmlns="http://www.w3.org/2000/svg">
<circle cx="41.5" cy="41.5" r="41.5" fill="#005AFF"/>
<g clip-path="url(#clip0_1443_5)">
<path d="M32.2553 30.7017C34.2219 30.7017 35.8219 29.1018 35.8219 27.1352C35.8219 25.1686 34.2219 23.5686 32.2553 23.5686C30.2887 23.5686 28.6886 25.1686 28.6886 27.1352C28.6886 29.1018 30.2886 30.7017 32.2553 30.7017ZM32.2553 24.9436C33.4638 24.9436 34.4469 25.9267 34.4469 27.1352C34.4469 28.3436 33.4638 29.3267 32.2553 29.3267C31.0469 29.3267 30.0636 28.3436 30.0636 27.1352C30.0636 25.9267 31.0468 24.9436 32.2553 24.9436ZM44.3178 31.7769C45.6383 31.7769 46.7127 30.7026 46.7127 29.382C46.7127 28.0614 45.6383 26.9871 44.3178 26.9871C42.9972 26.9871 41.9228 28.0614 41.9228 29.382C41.9228 30.7026 42.9972 31.7769 44.3178 31.7769ZM44.3178 28.3621C44.8801 28.3621 45.3377 28.8196 45.3377 29.382C45.3377 29.9444 44.8801 30.4019 44.3178 30.4019C43.7554 30.4019 43.2978 29.9444 43.2978 29.382C43.2978 28.8196 43.7554 28.3621 44.3178 28.3621ZM35.1344 36.8366H27.7928C27.4132 36.8366 27.1053 37.1444 27.1053 37.5241V44.4598C27.1053 44.8395 27.4132 45.1473 27.7928 45.1473H35.1344C35.5141 45.1473 35.8219 44.8395 35.8219 44.4598V37.5241C35.8219 37.1444 35.5141 36.8366 35.1344 36.8366ZM34.4469 43.7723H28.4803V38.2116H34.4469V43.7723ZM38.5609 37.5241C38.5609 37.1444 38.8687 36.8366 39.2484 36.8366H46.0252C46.4048 36.8366 46.7127 37.1444 46.7127 37.5241C46.7127 37.9037 46.4048 38.2116 46.0252 38.2116H39.2484C38.8687 38.2116 38.5609 37.9037 38.5609 37.5241ZM38.5609 40.992C38.5609 40.6123 38.8687 40.3045 39.2484 40.3045H46.0252C46.4048 40.3045 46.7127 40.6123 46.7127 40.992C46.7127 41.3717 46.4048 41.6795 46.0252 41.6795H39.2484C38.8687 41.6795 38.5609 41.3717 38.5609 40.992ZM59.2196 48.0383H59.2943V33.9456C59.2943 33.7047 59.1682 33.4813 58.9618 33.3569C58.7557 33.2324 58.4991 33.2252 58.286 33.3375L53.2626 35.9881H51.7408V34.3644C51.7408 32.9483 50.5887 31.7962 49.1726 31.7962H48.5894C48.9942 31.0828 49.2267 30.2593 49.2267 29.3819C49.2267 26.6751 47.0245 24.473 44.3178 24.473C41.611 24.473 39.4088 26.6751 39.4088 29.3819C39.4088 30.2592 39.6413 31.0828 40.0461 31.7962H37.6778C38.7566 30.543 39.4109 28.9146 39.4109 27.1352C39.4109 23.1895 36.2009 19.9795 32.2552 19.9795C28.3096 19.9795 25.0995 23.1895 25.0995 27.1352C25.0995 28.9215 25.7589 30.5558 26.8453 31.8109C25.5573 31.9478 24.5505 33.0406 24.5505 34.3644V47.6196C24.5505 49.0356 25.7026 50.1877 27.1187 50.1877H27.9987V50.7598L20.3411 50.4678C20.3323 50.4675 20.3237 50.4673 20.3149 50.4673C18.6194 50.4673 17.7323 51.6316 17.7323 52.7818C17.7323 53.932 18.6193 55.0964 20.3149 55.0964C20.3311 55.0964 20.3475 55.0958 20.3636 55.0947L29.3632 54.4546C30.5355 54.3712 31.4538 53.3853 31.4538 52.21V50.1877H34.0916V51.3147C34.0916 52.0373 34.6591 52.6282 35.3716 52.6693V62.334C35.3716 62.7137 35.6794 63.0215 36.0591 63.0215H40.2321C40.6118 63.0215 40.9196 62.7137 40.9196 62.334V57.9941C42.7506 61.0058 46.0634 63.0215 49.8381 63.0215C55.5889 63.0215 60.2675 58.3429 60.2675 52.5922C60.2675 50.9604 59.8904 49.4151 59.2195 48.0384L59.2196 48.0383ZM54.1203 37.0902L57.9193 35.0857V46.0069C56.902 44.7608 55.6031 43.7532 54.1203 43.0828V37.0902ZM51.7408 37.3631H52.7453V42.5755C52.4168 42.48 52.0817 42.4002 51.7408 42.3372V37.3631ZM44.3178 25.8481C46.2664 25.8481 47.8517 27.4334 47.8517 29.382C47.8517 31.3306 46.2664 32.9159 44.3178 32.9159C42.3691 32.9159 40.7838 31.3306 40.7838 29.382C40.7838 27.4334 42.3691 25.8481 44.3178 25.8481ZM26.4745 27.1352C26.4745 23.9477 29.0678 21.3545 32.2553 21.3545C35.4428 21.3545 38.036 23.9477 38.036 27.1352C38.036 30.3227 35.4428 32.9159 32.2553 32.9159C29.0678 32.9159 26.4745 30.3227 26.4745 27.1352ZM30.0789 52.2099C30.0789 52.667 29.7217 53.0505 29.2657 53.083L20.2921 53.7212C19.4182 53.7126 19.1074 53.2114 19.1074 52.7818C19.1074 52.3522 19.4207 51.8469 20.3027 51.8423L28.0035 52.1359C28.3592 52.1519 28.7113 52.0192 28.9687 51.7728C29.2261 51.5265 29.3737 51.1809 29.3737 50.8246V48.0383C29.3737 47.6693 29.5946 47.6142 29.7263 47.6142C29.8579 47.6142 30.0789 47.6693 30.0789 48.0383V52.2099ZM39.5447 61.6465H36.7467V52.6732H39.4099C39.414 53.2168 39.46 53.7504 39.5447 54.2714V61.6465ZM39.489 51.2983H35.4668V50.1877H39.6891C39.603 50.5511 39.5358 50.9215 39.489 51.2983ZM40.1178 48.8126H31.4539V48.0383C31.4539 46.8698 30.5639 46.2392 29.7263 46.2392C28.8888 46.2392 27.9988 46.8697 27.9988 48.0383V48.8126H27.1187C26.4609 48.8126 25.9256 48.2774 25.9256 47.6195V34.3643C25.9256 33.7064 26.4609 33.1712 27.1187 33.1712H28.4051V33.162C29.5177 33.8752 30.8385 34.2908 32.2553 34.2908C33.6722 34.2908 34.9815 33.8789 36.091 33.1712H41.2005C42.0489 33.8704 43.1352 34.2908 44.3178 34.2908C45.5003 34.2908 46.5866 33.8703 47.435 33.1712H49.1726C49.8305 33.1712 50.3658 33.7065 50.3658 34.3644V42.176C50.191 42.1673 50.0151 42.1628 49.8382 42.1628C47.7956 42.1628 45.8886 42.7535 44.2781 43.7724H39.2484C38.8687 43.7724 38.5609 44.0802 38.5609 44.4599C38.5609 44.8396 38.8687 45.1474 39.2484 45.1474H42.5424C41.4938 46.1752 40.6606 47.4217 40.1179 48.8127L40.1178 48.8126ZM49.8382 61.6465C44.8456 61.6465 40.7838 57.5846 40.7838 52.5921C40.7838 47.5995 44.8457 43.5377 49.8382 43.5377C54.8307 43.5377 58.8926 47.5995 58.8926 52.5921C58.8926 57.5847 54.8307 61.6465 49.8382 61.6465ZM52.524 48.9147C52.4649 48.9147 52.413 48.877 52.3947 48.8208L51.2752 45.3752C51.0692 44.741 50.5051 44.3313 49.8382 44.3313C49.1713 44.3313 48.6073 44.7411 48.4012 45.3752L47.2817 48.8207C47.2634 48.8769 47.2115 48.9147 47.1524 48.9147H43.5295C42.8627 48.9147 42.2987 49.3246 42.0926 49.9587C41.8866 50.5929 42.1019 51.256 42.6415 51.648L45.5724 53.7774C45.6202 53.8121 45.64 53.8733 45.6218 53.9294L44.5023 57.375C44.2963 58.0092 44.5116 58.6723 45.0511 59.0643C45.5908 59.4564 46.288 59.4563 46.8274 59.0643L49.7583 56.9349C49.8061 56.9001 49.8703 56.9001 49.918 56.9349L52.8489 59.0643C53.1188 59.2603 53.4278 59.3583 53.737 59.3583C54.0462 59.3583 54.3554 59.2602 54.6252 59.0643C55.1646 58.6723 55.3801 58.0092 55.1741 57.375L54.0546 53.9296C54.0363 53.8734 54.0562 53.8122 54.1039 53.7775L57.0349 51.6481C57.5743 51.2561 57.7897 50.593 57.5838 49.9588C57.3777 49.3246 56.8137 48.9148 56.1468 48.9148H52.5239L52.524 48.9147ZM56.2761 50.3837C56.3065 50.4776 56.2486 50.5198 56.2268 50.5357L53.2957 52.6652C52.7646 53.0512 52.5441 53.73 52.7469 54.3545L53.8664 57.8C53.8748 57.8257 53.8969 57.894 53.817 57.952C53.7371 58.0101 53.6791 57.9678 53.6573 57.952L50.7264 55.8226C50.4607 55.6295 50.1496 55.5331 49.8383 55.5331C49.527 55.5331 49.2158 55.6296 48.9502 55.8226L46.0193 57.952C45.9975 57.9678 45.9394 58.0101 45.8596 57.952C45.7795 57.894 45.8018 57.8257 45.8101 57.8L46.9296 54.3544C47.1325 53.73 46.9119 53.0512 46.3808 52.6652L43.4498 50.5358C43.428 50.5199 43.3699 50.4778 43.4005 50.3837C43.431 50.2898 43.5026 50.2898 43.5297 50.2898H47.1526C47.8091 50.2898 48.3865 49.8703 48.5896 49.2458L49.7091 45.8003C49.7175 45.7746 49.7396 45.7063 49.8384 45.7063C49.9371 45.7063 49.9592 45.7746 49.9676 45.8003L51.0871 49.2459C51.2901 49.8704 51.8676 50.2898 52.5242 50.2898H56.147C56.174 50.2898 56.2457 50.2898 56.2763 50.3837L56.2761 50.3837Z" fill="white"/>
</g>
<defs>
<clipPath id="clip0_1443_5">
<rect width="44" height="44" fill="white" transform="translate(17 19.5)"/>
</clipPath>
</defs>
</svg>
