<svg width="83" height="83" viewBox="0 0 83 83" fill="none" xmlns="http://www.w3.org/2000/svg">
<circle cx="41.5" cy="41.5" r="41.5" fill="#005AFF"/>
<path d="M29.3125 53.875V59.7188C29.3125 61.0508 30.3867 62.125 31.7188 62.125H44.4375V60.75H31.7188C31.1516 60.75 30.6875 60.2859 30.6875 59.7188V53.875H29.3125Z" fill="white"/>
<path d="M51.3125 59.7188C51.3125 60.2859 50.8484 60.75 50.2812 60.75H45.8125V62.125H50.2812C51.6133 62.125 52.6875 61.0508 52.6875 59.7188V53.875H51.3125V59.7188Z" fill="white"/>
<path d="M44.7812 53.875H37.2188C35.8867 53.875 34.8125 54.9492 34.8125 56.2812V56.9688C34.8125 58.3008 35.8867 59.375 37.2188 59.375H44.7812C46.1133 59.375 47.1875 58.3008 47.1875 56.9688V56.2812C47.1875 54.9492 46.1133 53.875 44.7812 53.875ZM45.8125 56.9688C45.8125 57.5359 45.3484 58 44.7812 58H37.2188C36.6516 58 36.1875 57.5359 36.1875 56.9688V56.2812C36.1875 55.7141 36.6516 55.25 37.2188 55.25H44.7812C45.3484 55.25 45.8125 55.7141 45.8125 56.2812V56.9688Z" fill="white"/>
<path d="M28.2468 29.8806C27.9031 29.7088 27.4906 29.8463 27.3273 30.19C27.2757 30.2845 27.2585 30.3877 27.2585 30.4994V41.4994C27.2585 41.8775 27.5679 42.1869 27.946 42.1869C28.0492 42.1869 28.1609 42.1611 28.2554 42.1181L39.2554 36.6181C39.5992 36.4463 39.7367 36.0338 39.5648 35.6986C39.496 35.5697 39.3929 35.458 39.2554 35.3892L28.2468 29.8806ZM28.625 40.3908V31.608L37.3992 35.9994L28.625 40.3908Z" fill="white"/>
<path d="M23.125 48.375H25.875V49.75H23.125V48.375Z" fill="white"/>
<path d="M27.25 48.375H33.4375V49.75H27.25V48.375Z" fill="white"/>
<path d="M34.8125 48.375H36.1875V49.75H34.8125V48.375Z" fill="white"/>
<path d="M37.5625 48.375H38.9375V49.75H37.5625V48.375Z" fill="white"/>
<path d="M57.5 27.0625H60.0781C60.1727 27.0625 60.25 27.1398 60.25 27.2344V41.5H61.625V27.2344C61.625 26.3836 60.9289 25.6875 60.0781 25.6875H57.5V27.0625Z" fill="white"/>
<path d="M21.9219 52.5H60.0781C60.9289 52.5 61.625 51.8039 61.625 50.9531V42.875H60.25V45.625H58.1359C57.9727 45.0234 57.7836 44.4391 57.5516 43.8547C57.5344 43.8117 57.5172 43.7602 57.5 43.7172V34.625H56.125V41.1477C55.3 39.9875 54.3203 39.1367 53.2289 38.6211L52.868 36.825L53.5812 36.3953C54.3031 35.957 54.75 35.175 54.75 34.3328V31.0156C54.75 29.3484 53.4953 27.9391 51.8367 27.7672C51.5188 27.7328 51.2266 27.9219 51.1148 28.2227C50.625 29.5891 49.3273 30.5 47.875 30.5H47.1875C46.8094 30.5 46.5 30.8094 46.5 31.1875V34.3414C46.5 35.1836 46.9469 35.9656 47.6688 36.4039L48.382 36.8336L48.0211 38.6297C46.9211 39.1367 45.95 39.9961 45.125 41.1562V30.5C45.125 27.4664 47.5914 25 50.625 25C53.6586 25 56.125 27.4664 56.125 30.5V33.25H57.5V30.5C57.5 27.5008 55.5492 24.8453 52.6875 23.943V23.2812C52.6875 21.9492 51.6133 20.875 50.2812 20.875H31.7188C30.3867 20.875 29.3125 21.9492 29.3125 23.2812V24.3125H30.6875V23.2812C30.6875 22.7141 31.1516 22.25 31.7188 22.25H50.2812C50.8484 22.25 51.3125 22.7141 51.3125 23.2812V23.6594C51.0891 23.6336 50.857 23.625 50.625 23.625C46.8266 23.6336 43.7586 26.7016 43.75 30.5V40.357C43.432 40.2023 43.0797 40.125 42.7188 40.125H36.875C36.4969 40.125 36.1875 40.4344 36.1875 40.8125C36.1875 43.0898 38.0352 44.9375 40.3125 44.9375H41V50.0938C41 50.4547 41.0773 50.807 41.232 51.125H21.9219C21.8273 51.125 21.75 51.0477 21.75 50.9531V47H38.9375V45.625H21.75V33.25H20.375V50.9531C20.375 51.8039 21.0711 52.5 21.9219 52.5ZM60.25 47V50.9531C60.25 51.0477 60.1727 51.125 60.0781 51.125H58.875C58.875 49.7414 58.7289 48.3578 58.4625 47H60.25ZM56.2281 44.25C57.0359 46.2867 57.4914 48.7703 57.5 51.125H55.4375V47.6875H54.0625V51.125H46.3883L45.125 44.1898V43.9922C45.4344 43.2531 45.8211 42.5398 46.2852 41.8867L47.2133 45.1266C47.3164 45.4875 47.6945 45.7023 48.0641 45.5992C48.1414 45.5734 48.2187 45.5391 48.2875 45.4875L50.625 43.7344L52.9625 45.4875C53.2633 45.7195 53.693 45.6508 53.925 45.35C53.9766 45.2812 54.0109 45.2039 54.0367 45.1266L54.9648 41.8867C55.5148 42.5656 55.9789 43.5281 56.2281 44.25ZM48.1586 40.1078L49.7141 42.7031L48.2617 43.7945L47.3766 40.6836C47.6172 40.4602 47.8836 40.2711 48.1586 40.1078ZM50.625 37.7789C50.9688 37.7789 51.3039 37.7102 51.6133 37.5641L51.9656 39.3086L50.625 41.543L49.293 39.3172L49.6453 37.5727C49.9461 37.7016 50.2812 37.7789 50.625 37.7789ZM53.0914 40.1078C53.375 40.2711 53.6328 40.4688 53.882 40.6836L52.9969 43.7945L51.5445 42.7031L53.0914 40.1078ZM47.875 34.3414V31.875C49.6797 31.875 51.3383 30.8609 52.1633 29.2453C52.8937 29.5289 53.375 30.225 53.375 31.0156V34.3414C53.375 34.7023 53.1859 35.0375 52.8766 35.2266L51.1578 36.2578C50.8313 36.4555 50.4273 36.4555 50.1008 36.2578L48.382 35.2266C48.0641 35.0375 47.875 34.7023 47.875 34.3414ZM37.6484 41.5H42.7188C43.2859 41.5 43.75 41.9641 43.75 42.5312V43.5625H40.3125C39.0578 43.5625 37.9664 42.7117 37.6484 41.5ZM42.375 50.0938V44.9375H43.8617L44.9875 51.125H43.4062C42.8391 51.125 42.375 50.6609 42.375 50.0938Z" fill="white"/>
<path d="M21.75 27.2344C21.75 27.1398 21.8273 27.0625 21.9219 27.0625H43.75V25.6875H21.9219C21.0711 25.6875 20.375 26.3836 20.375 27.2344V31.875H21.75V27.2344Z" fill="white"/>
</svg>
