<svg width="948" height="752" viewBox="0 0 948 752" fill="none" xmlns="http://www.w3.org/2000/svg">
<path d="M365.781 263.157C406.987 260.893 509.846 227.335 509.846 227.335L113.473 432.273C113.473 432.273 316.616 591.556 512.578 497.594C547.931 480.659 610.911 429.307 664.76 384.824L389.975 741.864C389.975 741.864 728.207 809.917 832.939 593.351C837.544 583.83 1103.59 0 1103.59 0L1007.44 1.32654L0 2.18512C0 2.18512 155.537 274.785 365.781 263.157ZM748.863 139.851C654.901 209.62 241.461 428.683 241.461 428.683L527.016 291.642C527.016 291.642 818.501 145.704 838.714 139.851C838.714 139.851 860.41 81.3026 832.939 101.672M482.82 673.172C447.935 743.956 633.387 696.21 510.393 686.845L695.664 442.028C695.664 442.028 904.972 168.804 917.38 157.488L821.545 249.473C821.545 249.473 603.304 520.65 591.208 545.077M821.545 56.268C821.545 56.268 783.123 37.0098 748.863 42.5507C641.088 59.954 295.604 52.4042 126.506 56.268C126.506 56.268 705.653 60.2481 821.545 56.268Z" fill="#FFDB00"/>
</svg>
