<svg width="23" height="16" viewBox="0 0 23 16" fill="none" xmlns="http://www.w3.org/2000/svg">
<path d="M15.3767 10.188C14.5179 10.2352 12.3742 10.9346 12.3742 10.9346L20.6351 6.66347C20.6351 6.66347 16.4014 3.34383 12.3173 5.30211C11.5805 5.65506 10.2679 6.72528 9.14567 7.65237L14.8725 0.211238C14.8725 0.211238 7.82335 -1.20705 5.64062 3.30642C5.54465 3.50485 0 15.6725 0 15.6725L2.00382 15.6449L23 15.627C23 15.627 19.7584 9.9457 15.3767 10.188ZM11.3105 7.54014C13.2688 6.08607 15.245 5.33952 17.9677 6.73829L12.0164 9.59438C12.0164 9.59438 5.94152 12.6359 5.52026 12.7579C5.52026 12.7579 10.738 7.96303 11.3105 7.53852M6.87186 3.92449C7.59889 2.44927 9.79952 1.16273 12.3628 1.35791L8.50159 6.46016C8.50159 6.46016 4.13938 12.1545 3.88077 12.3903L4.85504 9.70823C4.85504 9.70823 6.61976 4.43195 6.87186 3.92286M5.87809 14.4998C5.87809 14.4998 13.6835 11.8958 14.3976 11.7804C16.6437 11.4177 18.6654 12.3887 20.3635 14.4998C20.3635 14.4998 8.2934 14.4169 5.87809 14.4998Z" fill="white"/>
</svg>
