<svg width="83" height="83" viewBox="0 0 83 83" fill="none" xmlns="http://www.w3.org/2000/svg">
<circle cx="41.5" cy="41.5" r="41.5" fill="#005AFF"/>
<path d="M59.5625 25H57.5V22.9375C57.5 22.3905 57.2827 21.8659 56.8959 21.4791C56.5091 21.0923 55.9845 20.875 55.4375 20.875C54.8905 20.875 54.3659 21.0923 53.9791 21.4791C53.5923 21.8659 53.375 22.3905 53.375 22.9375V25H43.0625V22.9375C43.0625 22.3905 42.8452 21.8659 42.4584 21.4791C42.0716 21.0923 41.547 20.875 41 20.875C40.453 20.875 39.9284 21.0923 39.5416 21.4791C39.1548 21.8659 38.9375 22.3905 38.9375 22.9375V25H28.625V22.9375C28.625 22.3905 28.4077 21.8659 28.0209 21.4791C27.6341 21.0923 27.1095 20.875 26.5625 20.875C26.0155 20.875 25.4909 21.0923 25.1041 21.4791C24.7173 21.8659 24.5 22.3905 24.5 22.9375V25H22.4375C21.8905 25 21.3659 25.2173 20.9791 25.6041C20.5923 25.9909 20.375 26.5155 20.375 27.0625V60.0625C20.375 60.6095 20.5923 61.1341 20.9791 61.5209C21.3659 61.9077 21.8905 62.125 22.4375 62.125H59.5625C60.1095 62.125 60.6341 61.9077 61.0209 61.5209C61.4077 61.1341 61.625 60.6095 61.625 60.0625V27.0625C61.625 26.5155 61.4077 25.9909 61.0209 25.6041C60.6341 25.2173 60.1095 25 59.5625 25ZM54.75 22.9375C54.75 22.7552 54.8224 22.5803 54.9514 22.4514C55.0803 22.3224 55.2552 22.25 55.4375 22.25C55.6198 22.25 55.7947 22.3224 55.9236 22.4514C56.0526 22.5803 56.125 22.7552 56.125 22.9375V28.4375C56.125 28.6198 56.0526 28.7947 55.9236 28.9236C55.7947 29.0526 55.6198 29.125 55.4375 29.125C55.2552 29.125 55.0803 29.0526 54.9514 28.9236C54.8224 28.7947 54.75 28.6198 54.75 28.4375V22.9375ZM40.3125 22.9375C40.3125 22.7552 40.3849 22.5803 40.5139 22.4514C40.6428 22.3224 40.8177 22.25 41 22.25C41.1823 22.25 41.3572 22.3224 41.4861 22.4514C41.6151 22.5803 41.6875 22.7552 41.6875 22.9375V28.4375C41.6875 28.6198 41.6151 28.7947 41.4861 28.9236C41.3572 29.0526 41.1823 29.125 41 29.125C40.8177 29.125 40.6428 29.0526 40.5139 28.9236C40.3849 28.7947 40.3125 28.6198 40.3125 28.4375V22.9375ZM25.875 22.9375C25.875 22.7552 25.9474 22.5803 26.0764 22.4514C26.2053 22.3224 26.3802 22.25 26.5625 22.25C26.7448 22.25 26.9197 22.3224 27.0486 22.4514C27.1776 22.5803 27.25 22.7552 27.25 22.9375V28.4375C27.25 28.6198 27.1776 28.7947 27.0486 28.9236C26.9197 29.0526 26.7448 29.125 26.5625 29.125C26.3802 29.125 26.2053 29.0526 26.0764 28.9236C25.9474 28.7947 25.875 28.6198 25.875 28.4375V22.9375ZM22.4375 26.375H24.5V28.4375C24.5 28.9845 24.7173 29.5091 25.1041 29.8959C25.4909 30.2827 26.0155 30.5 26.5625 30.5C27.1095 30.5 27.6341 30.2827 28.0209 29.8959C28.4077 29.5091 28.625 28.9845 28.625 28.4375V26.375H38.9375V28.4375C38.9375 28.9845 39.1548 29.5091 39.5416 29.8959C39.9284 30.2827 40.453 30.5 41 30.5C41.547 30.5 42.0716 30.2827 42.4584 29.8959C42.8452 29.5091 43.0625 28.9845 43.0625 28.4375V26.375H53.375V28.4375C53.375 28.9845 53.5923 29.5091 53.9791 29.8959C54.3659 30.2827 54.8905 30.5 55.4375 30.5C55.9845 30.5 56.5091 30.2827 56.8959 29.8959C57.2827 29.5091 57.5 28.9845 57.5 28.4375V26.375H59.5625C59.7448 26.375 59.9197 26.4474 60.0486 26.5764C60.1776 26.7053 60.25 26.8802 60.25 27.0625V33.25H21.75V27.0625C21.75 26.8802 21.8224 26.7053 21.9514 26.5764C22.0803 26.4474 22.2552 26.375 22.4375 26.375ZM52 47V41.5H60.25V47H52ZM60.25 48.375V53.875H52V48.375H60.25ZM52 40.125V34.625H60.25V40.125H52ZM21.75 40.125V34.625H30V40.125H21.75ZM31.375 34.625H40.3125V40.125H31.375V34.625ZM41.6875 34.625H50.625V40.125H41.6875V34.625ZM21.75 60.0625V41.5H50.625V47H43.75V48.375H50.625V53.875H43.75V55.25H50.625V60.75H22.4375C22.2552 60.75 22.0803 60.6776 21.9514 60.5486C21.8224 60.4197 21.75 60.2448 21.75 60.0625ZM59.5625 60.75H52V55.25H60.25V60.0625C60.25 60.2448 60.1776 60.4197 60.0486 60.5486C59.9197 60.6776 59.7448 60.75 59.5625 60.75Z" fill="white"/>
<path d="M25.875 51.125H30V52.5H25.875V51.125Z" fill="white"/>
<path d="M25.875 55.25H30V56.625H25.875V55.25Z" fill="white"/>
<path d="M31.375 51.125H35.5V52.5H31.375V51.125Z" fill="white"/>
<path d="M31.375 55.25H35.5V56.625H31.375V55.25Z" fill="white"/>
<path d="M42.089 49.1921C42.0007 49.1285 41.8986 49.0867 41.791 49.0702C41.6835 49.0537 41.5735 49.063 41.4702 49.0973L38.2239 50.1794C38.1621 49.6823 37.9213 49.2248 37.5464 48.8926C37.1715 48.5604 36.6884 48.3762 36.1875 48.3747H36.1696C36.6246 47.7832 36.8725 47.0585 36.875 46.3122C36.8771 45.5894 36.6506 44.8844 36.2279 44.2981C35.8052 43.7118 35.2079 43.2741 34.5215 43.0477C33.8351 42.8212 33.0946 42.8176 32.406 43.0373C31.7174 43.257 31.1159 43.6889 30.6875 44.271C30.4212 43.9026 30.0843 43.5909 29.6964 43.3541C29.3084 43.1173 28.8772 42.9601 28.4279 42.8916C27.9785 42.8231 27.52 42.8448 27.0792 42.9554C26.6383 43.0659 26.2238 43.2631 25.86 43.5355C25.4961 43.8079 25.1901 44.15 24.9598 44.5419C24.7295 44.9337 24.5795 45.3675 24.5186 45.8179C24.4576 46.2684 24.487 46.7264 24.6049 47.1654C24.7228 47.6043 24.9269 48.0154 25.2054 48.3747H25.1875C24.6405 48.3747 24.1159 48.592 23.7291 48.9788C23.3423 49.3656 23.125 49.8902 23.125 50.4372V57.3122C23.125 57.8592 23.3423 58.3838 23.7291 58.7706C24.1159 59.1574 24.6405 59.3747 25.1875 59.3747H36.1875C36.6884 59.3732 37.1715 59.189 37.5464 58.8568C37.9213 58.5246 38.1621 58.0671 38.2239 57.57L41.4702 58.6521C41.5403 58.6753 41.6137 58.6871 41.6875 58.6872C41.8698 58.6872 42.0447 58.6148 42.1736 58.4858C42.3026 58.3569 42.375 58.182 42.375 57.9997V49.7497C42.3749 49.6408 42.3489 49.5334 42.2992 49.4365C42.2495 49.3395 42.1774 49.2558 42.089 49.1921ZM33.4375 44.2497C33.8454 44.2497 34.2442 44.3707 34.5834 44.5973C34.9225 44.8239 35.1869 45.1461 35.343 45.5229C35.4991 45.8998 35.54 46.3145 35.4604 46.7146C35.3808 47.1147 35.1844 47.4822 34.8959 47.7706C34.6075 48.0591 34.24 48.2555 33.8399 48.3351C33.4398 48.4147 33.0251 48.3738 32.6482 48.2177C32.2713 48.0616 31.9492 47.7972 31.7226 47.4581C31.496 47.1189 31.375 46.7201 31.375 46.3122C31.375 45.7652 31.5923 45.2406 31.9791 44.8538C32.3659 44.467 32.8905 44.2497 33.4375 44.2497ZM30.7054 48.3747H30.6696C30.6758 48.3671 30.682 48.361 30.6875 48.3534C30.693 48.361 30.6992 48.3671 30.7054 48.3747ZM25.875 46.3122C25.875 45.9043 25.996 45.5055 26.2226 45.1663C26.4492 44.8272 26.7713 44.5628 27.1482 44.4067C27.5251 44.2506 27.9398 44.2098 28.3399 44.2893C28.74 44.3689 29.1075 44.5654 29.3959 44.8538C29.6844 45.1422 29.8808 45.5098 29.9604 45.9098C30.04 46.3099 29.9991 46.7246 29.843 47.1015C29.6869 47.4784 29.4225 47.8005 29.0834 48.0271C28.7442 48.2537 28.3454 48.3747 27.9375 48.3747C27.3905 48.3747 26.8659 48.1574 26.4791 47.7706C26.0923 47.3838 25.875 46.8592 25.875 46.3122ZM36.875 57.3122C36.875 57.4945 36.8026 57.6694 36.6736 57.7983C36.5447 57.9273 36.3698 57.9997 36.1875 57.9997H25.1875C25.0052 57.9997 24.8303 57.9273 24.7014 57.7983C24.5724 57.6694 24.5 57.4945 24.5 57.3122V50.4372C24.5 50.2549 24.5724 50.08 24.7014 49.9511C24.8303 49.8221 25.0052 49.7497 25.1875 49.7497H36.1875C36.3698 49.7497 36.5447 49.8221 36.6736 49.9511C36.8026 50.08 36.875 50.2549 36.875 50.4372V57.3122ZM41 57.0461L38.25 56.129V51.6204L41 50.7033V57.0461Z" fill="white"/>
<path d="M27.25 45.625H28.625V47H27.25V45.625Z" fill="white"/>
<path d="M32.75 45.625H34.125V47H32.75V45.625Z" fill="white"/>
</svg>
