<svg width="55" height="55" viewBox="0 0 55 55" fill="none" xmlns="http://www.w3.org/2000/svg">
<path d="M42.0841 10.624C45.8707 14.4101 48.0364 19.5205 48.1232 24.8745C48.21 30.2285 46.2112 35.4064 42.5494 39.3133L42.0841 39.7946L32.3606 49.5158C31.1268 50.7488 29.4705 51.4668 27.7272 51.5242C25.9839 51.5816 24.2839 50.9743 22.9716 49.8252L22.6416 49.5158L12.9158 39.7923C9.04785 35.9243 6.87485 30.6783 6.87485 25.2081C6.87485 19.738 9.04785 14.4919 12.9158 10.624C16.7838 6.75601 22.0299 4.58301 27.5 4.58301C32.9701 4.58301 38.2162 6.75601 42.0841 10.624ZM27.5 18.3331C26.5971 18.3331 25.7031 18.511 24.869 18.8565C24.0349 19.202 23.277 19.7084 22.6386 20.3468C22.0002 20.9852 21.4938 21.7431 21.1483 22.5772C20.8028 23.4113 20.625 24.3053 20.625 25.2081C20.625 26.111 20.8028 27.005 21.1483 27.8391C21.4938 28.6732 22.0002 29.4311 22.6386 30.0695C23.277 30.7079 24.0349 31.2143 24.869 31.5598C25.7031 31.9053 26.5971 32.0831 27.5 32.0831C29.3233 32.0831 31.072 31.3588 32.3613 30.0695C33.6506 28.7802 34.375 27.0315 34.375 25.2081C34.375 23.3848 33.6506 21.6361 32.3613 20.3468C31.072 19.0575 29.3233 18.3331 27.5 18.3331Z" fill="white"/>
</svg>
