<svg width="2175" height="1482" viewBox="0 0 2175 1482" fill="none" xmlns="http://www.w3.org/2000/svg">
<mask id="path-1-inside-1_732_707" fill="white">
<path d="M720.611 518.435C801.79 513.976 1004.43 447.864 1004.43 447.864L223.548 851.604C223.548 851.604 623.752 1165.4 1009.81 980.29C1079.46 946.927 1203.53 845.761 1309.62 758.126L768.273 1461.52C768.273 1461.52 1434.61 1595.58 1640.94 1168.94C1650.01 1150.18 2174.13 0 2174.13 0L1984.72 2.6134L0 4.30493C0 4.30493 306.417 541.343 720.611 518.435ZM1104.98 768.734C919.867 906.184 733.065 976.754 475.693 844.531L1038.25 574.552C1038.25 574.552 1612.5 287.045 1652.32 275.514C1652.32 275.514 1159.1 728.76 1104.98 768.888M1524.55 1110.51C1455.83 1249.96 1247.81 1371.58 1005.5 1353.13L1370.5 870.822C1370.5 870.822 1782.85 332.554 1807.29 310.261L1715.2 563.79C1715.2 563.79 1548.38 1062.54 1524.55 1110.67M1618.49 110.851C1618.49 110.851 880.662 357 813.167 367.916C600.843 402.202 409.736 310.415 249.224 110.851C249.224 110.851 1390.18 118.692 1618.49 110.851Z"/>
</mask>
<path d="M720.611 518.435C801.79 513.976 1004.43 447.864 1004.43 447.864L223.548 851.604C223.548 851.604 623.752 1165.4 1009.81 980.29C1079.46 946.927 1203.53 845.761 1309.62 758.126L768.273 1461.52C768.273 1461.52 1434.61 1595.58 1640.94 1168.94C1650.01 1150.18 2174.13 0 2174.13 0L1984.72 2.6134L0 4.30493C0 4.30493 306.417 541.343 720.611 518.435ZM1104.98 768.734C919.867 906.184 733.065 976.754 475.693 844.531L1038.25 574.552C1038.25 574.552 1612.5 287.045 1652.32 275.514C1652.32 275.514 1159.1 728.76 1104.98 768.888M1524.55 1110.51C1455.83 1249.96 1247.81 1371.58 1005.5 1353.13L1370.5 870.822C1370.5 870.822 1782.85 332.554 1807.29 310.261L1715.2 563.79C1715.2 563.79 1548.38 1062.54 1524.55 1110.67M1618.49 110.851C1618.49 110.851 880.662 357 813.167 367.916C600.843 402.202 409.736 310.415 249.224 110.851C249.224 110.851 1390.18 118.692 1618.49 110.851Z" fill="white"/>
<path d="M720.611 518.435L720.556 517.436L720.556 517.436L720.611 518.435ZM1004.43 447.864L1004.89 448.753L1004.12 446.914L1004.43 447.864ZM223.548 851.604L223.089 850.715L221.707 851.43L222.931 852.391L223.548 851.604ZM1009.81 980.29L1009.38 979.388L1009.38 979.388L1009.81 980.29ZM1309.62 758.126L1310.41 758.736L1308.98 757.355L1309.62 758.126ZM768.273 1461.52L767.481 1460.91L766.501 1462.18L768.076 1462.5L768.273 1461.52ZM1640.94 1168.94L1640.04 1168.5L1640.04 1168.5L1640.94 1168.94ZM2174.13 0L2175.04 0.414664L2175.7 -1.02168L2174.12 -0.999905L2174.13 0ZM1984.72 2.6134L1984.72 3.61349L1984.73 3.61331L1984.72 2.6134ZM0 4.30493L-0.000852276 3.30493L-1.72106 3.3064L-0.868564 4.80051L0 4.30493ZM475.693 844.531L475.26 843.63L473.445 844.501L475.236 845.421L475.693 844.531ZM1038.25 574.552L1038.69 575.454L1038.69 575.45L1038.7 575.446L1038.25 574.552ZM1652.32 275.514L1652.99 276.25L1652.04 274.554L1652.32 275.514ZM1005.5 1353.13L1004.71 1352.52L1003.6 1353.98L1005.43 1354.12L1005.5 1353.13ZM1370.5 870.822L1369.71 870.214L1369.7 870.219L1370.5 870.822ZM1807.29 310.261L1808.23 310.603L1806.62 309.522L1807.29 310.261ZM1715.2 563.79L1714.26 563.448L1714.26 563.46L1714.25 563.472L1715.2 563.79ZM1618.49 110.851L1618.81 111.8L1618.46 109.852L1618.49 110.851ZM813.167 367.916L813.327 368.903L813.327 368.903L813.167 367.916ZM249.224 110.851L249.231 109.851L247.125 109.837L248.445 111.478L249.224 110.851ZM720.611 518.435L720.666 519.433C761.384 517.197 832.446 499.519 893.232 482.44C923.646 473.895 951.522 465.489 971.793 459.219C981.929 456.084 990.164 453.484 995.866 451.666C998.717 450.758 1000.93 450.045 1002.44 449.559C1003.19 449.317 1003.77 449.131 1004.15 449.005C1004.35 448.943 1004.49 448.895 1004.59 448.863C1004.64 448.847 1004.68 448.835 1004.7 448.827C1004.71 448.823 1004.72 448.82 1004.73 448.818C1004.73 448.817 1004.73 448.816 1004.74 448.816C1004.74 448.815 1004.74 448.815 1004.43 447.864C1004.12 446.914 1004.12 446.914 1004.12 446.914C1004.11 446.915 1004.11 446.916 1004.11 446.917C1004.1 446.919 1004.09 446.922 1004.08 446.925C1004.06 446.933 1004.02 446.945 1003.97 446.961C1003.87 446.993 1003.73 447.04 1003.54 447.103C1003.15 447.228 1002.58 447.414 1001.83 447.656C1000.32 448.141 998.108 448.853 995.259 449.761C989.562 451.577 981.332 454.176 971.202 457.309C950.942 463.574 923.084 471.975 892.691 480.515C831.863 497.606 761.017 515.214 720.556 517.436L720.611 518.435ZM1004.43 447.864L1003.97 446.976L223.089 850.715L223.548 851.604L224.008 852.492L1004.89 448.753L1004.43 447.864ZM223.548 851.604C222.931 852.391 222.933 852.392 222.937 852.395C222.94 852.397 222.945 852.401 222.951 852.406C222.963 852.416 222.982 852.43 223.007 852.449C223.056 852.488 223.13 852.545 223.228 852.621C223.423 852.772 223.715 852.997 224.101 853.293C224.873 853.883 226.024 854.755 227.54 855.885C230.572 858.143 235.067 861.429 240.924 865.544C252.637 873.774 269.796 885.32 291.592 898.596C335.183 925.146 397.33 958.618 471.558 986.3C619.999 1041.66 816.872 1073.91 1010.24 981.191L1009.81 980.29L1009.38 979.388C816.69 1071.78 620.432 1039.69 472.257 984.426C398.176 956.799 336.144 923.39 292.633 896.888C270.878 883.638 253.755 872.115 242.074 863.907C236.233 859.804 231.753 856.528 228.734 854.281C227.225 853.157 226.081 852.289 225.316 851.704C224.933 851.411 224.645 851.189 224.452 851.04C224.356 850.965 224.284 850.909 224.236 850.872C224.212 850.853 224.194 850.839 224.183 850.83C224.177 850.825 224.172 850.822 224.169 850.82C224.167 850.818 224.165 850.817 223.548 851.604ZM1009.81 980.29L1010.24 981.192C1045.17 964.461 1093.67 930.77 1146.66 890.355C1199.66 849.926 1257.21 802.714 1310.25 758.897L1309.62 758.126L1308.98 757.355C1255.94 801.173 1198.41 848.362 1145.44 888.765C1092.46 929.182 1044.1 962.756 1009.38 979.388L1009.81 980.29ZM1309.62 758.126L1308.82 757.516L767.481 1460.91L768.273 1461.52L769.066 1462.13L1310.41 758.736L1309.62 758.126ZM768.273 1461.52C768.076 1462.5 768.079 1462.5 768.084 1462.5C768.09 1462.5 768.098 1462.5 768.108 1462.5C768.129 1462.51 768.159 1462.51 768.2 1462.52C768.282 1462.54 768.404 1462.56 768.565 1462.59C768.888 1462.66 769.369 1462.75 770.005 1462.87C771.275 1463.11 773.163 1463.46 775.632 1463.9C780.57 1464.78 787.837 1466.02 797.158 1467.43C815.798 1470.27 842.654 1473.84 875.523 1476.8C941.259 1482.7 1031.07 1486.13 1127.34 1476.22C1319.83 1456.39 1538.45 1383.17 1641.84 1169.37L1640.94 1168.94L1640.04 1168.5C1537.1 1381.35 1319.39 1454.42 1127.13 1474.23C1031.03 1484.12 941.353 1480.7 875.702 1474.8C842.879 1471.85 816.064 1468.29 797.459 1465.46C788.156 1464.04 780.905 1462.81 775.982 1461.93C773.521 1461.5 771.641 1461.15 770.378 1460.91C769.746 1460.79 769.268 1460.69 768.949 1460.63C768.79 1460.6 768.669 1460.58 768.59 1460.56C768.55 1460.55 768.52 1460.55 768.5 1460.54C768.49 1460.54 768.483 1460.54 768.478 1460.54C768.473 1460.54 768.471 1460.54 768.273 1461.52ZM1640.94 1168.94L1641.84 1169.37C1646.38 1159.98 1779.69 867.726 1911.85 577.85C1977.93 432.905 2043.73 288.546 2093.01 180.423C2117.65 126.362 2138.16 81.36 2152.51 49.8731C2159.68 34.1297 2165.32 21.7651 2169.16 13.3363C2171.08 9.12194 2172.55 5.89153 2173.54 3.71471C2174.04 2.6263 2174.41 1.80129 2174.66 1.24838C2174.79 0.971926 2174.89 0.763497 2174.95 0.624182C2174.98 0.554524 2175 0.502145 2175.02 0.46718C2175.03 0.449697 2175.03 0.436568 2175.04 0.42781C2175.04 0.419052 2175.04 0.414664 2174.13 0C2173.22 -0.414664 2173.22 -0.410277 2173.22 -0.401519C2173.21 -0.392761 2173.21 -0.379632 2173.2 -0.36215C2173.18 -0.327185 2173.16 -0.274806 2173.13 -0.205149C2173.07 -0.0658346 2172.97 0.142593 2172.84 0.419047C2172.59 0.971954 2172.22 1.79696 2171.72 2.88537C2170.73 5.06219 2169.26 8.29259 2167.34 12.507C2163.5 20.9357 2157.86 33.3003 2150.69 49.0438C2136.34 80.5306 2115.83 125.533 2091.19 179.594C2041.91 287.716 1976.11 432.075 1910.03 577.02C1777.86 866.923 1644.57 1159.14 1640.04 1168.5L1640.94 1168.94ZM2174.13 0L2174.12 -0.999905L1984.7 1.6135L1984.72 2.6134L1984.73 3.61331L2174.15 0.999905L2174.13 0ZM1984.72 2.6134L1984.72 1.6134L-0.000852276 3.30493L0 4.30493L0.000852276 5.30493L1984.72 3.6134L1984.72 2.6134ZM0 4.30493C-0.868564 4.80051 -0.86725 4.80281 -0.864768 4.80716C-0.862383 4.81133 -0.858733 4.81772 -0.853966 4.82605C-0.844431 4.84271 -0.830232 4.86751 -0.81138 4.90037C-0.773677 4.96609 -0.717362 5.06407 -0.642531 5.19378C-0.492868 5.45321 -0.269141 5.83959 0.0278951 6.34873C0.621966 7.367 1.50927 8.87632 2.68375 10.8432C5.03271 14.777 8.5304 20.5411 13.1283 27.8676C22.3241 42.5206 35.9213 63.424 53.5318 88.4349C88.7516 138.455 140.031 204.913 204.268 270.659C332.702 402.112 513.124 530.912 720.667 519.433L720.611 518.435L720.556 517.436C513.905 528.866 334.021 400.601 205.698 269.261C141.556 203.612 90.3442 137.242 55.1671 87.2834C37.5793 62.3049 24.0017 41.4313 14.8224 26.8045C10.2327 19.4911 6.74274 13.7397 4.40091 9.81784C3.23 7.85694 2.34614 6.35346 1.75539 5.34089C1.46002 4.8346 1.23793 4.45104 1.08987 4.19439C1.01584 4.06606 0.96032 3.96946 0.923404 3.90512C0.904947 3.87295 0.89114 3.84883 0.881996 3.83285C0.877424 3.82486 0.874066 3.81899 0.871779 3.81498C0.869588 3.81115 0.868564 3.80936 0 4.30493ZM1104.98 768.734L1104.38 767.932C1011.88 836.617 919.048 888.519 817.257 906.776C715.493 925.027 604.671 909.668 476.15 843.642L475.693 844.531L475.236 845.421C604.087 911.617 715.352 927.084 817.61 908.744C919.841 890.409 1012.97 838.302 1105.57 769.537L1104.98 768.734ZM475.693 844.531L476.125 845.433L1038.69 575.454L1038.25 574.552L1037.82 573.65L475.26 843.63L475.693 844.531ZM1038.25 574.552C1038.7 575.446 1038.7 575.445 1038.71 575.443C1038.71 575.441 1038.72 575.437 1038.73 575.433C1038.74 575.424 1038.77 575.411 1038.81 575.394C1038.87 575.359 1038.98 575.307 1039.12 575.238C1039.39 575.1 1039.81 574.893 1040.35 574.621C1041.44 574.077 1043.05 573.269 1045.16 572.215C1049.37 570.106 1055.56 567.012 1063.45 563.07C1079.23 555.186 1101.82 543.911 1129.05 530.344C1183.5 503.21 1256.53 466.912 1330.8 430.254C1405.06 393.595 1480.57 356.578 1540 328.005C1569.72 313.718 1595.41 301.544 1614.92 292.583C1634.46 283.603 1647.71 277.89 1652.6 276.475L1652.32 275.514L1652.04 274.554C1646.97 276.021 1633.56 281.816 1614.08 290.765C1594.56 299.734 1568.86 311.914 1539.14 326.202C1479.7 354.78 1404.18 391.801 1329.91 428.46C1255.64 465.12 1182.61 501.42 1128.15 528.554C1100.93 542.121 1078.34 553.397 1062.56 561.281C1054.67 565.223 1048.48 568.317 1044.26 570.426C1042.16 571.48 1040.54 572.288 1039.45 572.833C1038.91 573.105 1038.5 573.311 1038.22 573.449C1038.08 573.518 1037.98 573.571 1037.91 573.605C1037.87 573.623 1037.85 573.636 1037.83 573.645C1037.82 573.649 1037.82 573.652 1037.81 573.655C1037.81 573.657 1037.81 573.658 1038.25 574.552ZM1652.32 275.514C1651.64 274.778 1651.64 274.78 1651.64 274.783C1651.63 274.786 1651.63 274.792 1651.62 274.799C1651.6 274.812 1651.58 274.833 1651.55 274.86C1651.49 274.915 1651.4 274.997 1651.28 275.106C1651.05 275.324 1650.69 275.65 1650.22 276.079C1649.29 276.938 1647.9 278.213 1646.09 279.878C1642.46 283.207 1637.14 288.095 1630.34 294.331C1616.75 306.803 1597.27 324.664 1573.73 346.223C1526.65 389.342 1463.3 447.251 1398.27 506.413C1333.24 565.576 1266.51 625.992 1212.67 674.124C1158.79 722.277 1117.87 758.087 1104.38 768.084L1104.98 768.888L1105.57 769.691C1119.15 759.624 1160.17 723.731 1214 675.615C1267.85 627.477 1334.58 567.057 1399.62 507.893C1464.65 448.728 1528 390.818 1575.08 347.698C1598.62 326.139 1618.1 308.277 1631.7 295.805C1638.49 289.569 1643.82 284.68 1647.44 281.351C1649.25 279.686 1650.64 278.411 1651.58 277.552C1652.05 277.123 1652.4 276.797 1652.64 276.579C1652.76 276.47 1652.84 276.388 1652.9 276.333C1652.93 276.306 1652.96 276.285 1652.97 276.271C1652.98 276.264 1652.98 276.259 1652.99 276.256C1652.99 276.252 1652.99 276.25 1652.32 275.514ZM1524.55 1110.51L1523.66 1110.07C1455.15 1249.08 1247.57 1370.55 1005.58 1352.13L1005.5 1353.13L1005.43 1354.12C1248.05 1372.6 1456.51 1250.84 1525.45 1110.96L1524.55 1110.51ZM1005.5 1353.13L1006.3 1353.73L1371.3 871.425L1370.5 870.822L1369.7 870.219L1004.71 1352.52L1005.5 1353.13ZM1370.5 870.822C1371.29 871.43 1371.29 871.428 1371.3 871.424C1371.3 871.42 1371.31 871.414 1371.31 871.406C1371.32 871.389 1371.34 871.365 1371.37 871.332C1371.42 871.267 1371.49 871.169 1371.59 871.04C1371.79 870.781 1372.09 870.395 1372.48 869.885C1373.26 868.866 1374.42 867.354 1375.93 865.38C1378.96 861.432 1383.4 855.639 1389.06 848.258C1400.38 833.497 1416.58 812.384 1436.1 786.979C1475.14 736.168 1527.45 668.189 1580.52 599.513C1633.59 530.837 1687.43 461.466 1729.52 407.871C1750.57 381.074 1768.68 358.223 1782.29 341.377C1789.09 332.953 1794.77 326.034 1799.12 320.875C1803.5 315.695 1806.5 312.341 1807.97 311L1807.29 310.261L1806.62 309.522C1805.04 310.968 1801.95 314.432 1797.6 319.585C1793.23 324.76 1787.54 331.692 1780.73 340.12C1767.11 356.977 1748.99 379.836 1727.95 406.636C1685.85 460.237 1632.01 529.613 1578.94 598.29C1525.87 666.968 1473.56 734.949 1434.52 785.76C1415 811.166 1398.8 832.279 1387.47 847.041C1381.81 854.422 1377.37 860.215 1374.34 864.163C1372.83 866.137 1371.67 867.65 1370.89 868.669C1370.5 869.179 1370.2 869.565 1370 869.824C1369.91 869.953 1369.83 870.051 1369.78 870.116C1369.76 870.148 1369.74 870.173 1369.72 870.189C1369.72 870.197 1369.71 870.204 1369.71 870.208C1369.71 870.212 1369.71 870.214 1370.5 870.822ZM1807.29 310.261L1806.35 309.92L1714.26 563.448L1715.2 563.79L1716.14 564.131L1808.23 310.603L1807.29 310.261ZM1715.2 563.79C1714.25 563.472 1714.25 563.474 1714.25 563.478C1714.25 563.482 1714.25 563.488 1714.24 563.495C1714.24 563.51 1714.23 563.533 1714.22 563.563C1714.2 563.624 1714.17 563.714 1714.13 563.834C1714.05 564.074 1713.93 564.432 1713.77 564.904C1713.46 565.849 1712.99 567.253 1712.37 569.085C1711.14 572.75 1709.34 578.131 1707.04 584.996C1702.43 598.728 1695.82 618.398 1687.81 642.153C1671.8 689.662 1650.21 753.509 1627.87 818.859C1605.53 884.21 1582.44 951.061 1563.45 1004.58C1544.45 1058.14 1529.58 1098.26 1523.66 1110.22L1524.55 1110.67L1525.45 1111.11C1531.44 1099.01 1546.36 1058.74 1565.34 1005.25C1584.33 951.719 1607.42 884.859 1629.76 819.506C1652.1 754.152 1673.7 690.302 1689.71 642.791C1697.72 619.036 1704.33 599.365 1708.93 585.633C1711.24 578.766 1713.04 573.385 1714.27 569.72C1714.88 567.888 1715.35 566.484 1715.67 565.539C1715.83 565.067 1715.95 564.708 1716.03 564.469C1716.07 564.349 1716.1 564.258 1716.12 564.198C1716.13 564.167 1716.14 564.145 1716.14 564.13C1716.14 564.122 1716.14 564.116 1716.15 564.112C1716.15 564.109 1716.15 564.107 1715.2 563.79ZM1618.49 110.851C1618.18 109.903 1618.17 109.904 1618.17 109.906C1618.16 109.907 1618.15 109.91 1618.14 109.914C1618.12 109.921 1618.09 109.933 1618.04 109.948C1617.95 109.977 1617.82 110.022 1617.64 110.081C1617.29 110.199 1616.76 110.376 1616.06 110.609C1614.66 111.075 1612.58 111.767 1609.87 112.67C1604.45 114.475 1596.5 117.125 1586.34 120.5C1566.04 127.252 1536.95 136.91 1501.84 148.533C1431.61 171.78 1337.28 202.889 1240.83 234.339C1144.38 265.79 1045.83 297.58 967.175 322.19C927.846 334.495 893.495 345.004 866.869 352.776C840.216 360.557 821.37 365.576 813.008 366.929L813.167 367.916L813.327 368.903C821.838 367.527 840.814 362.466 867.43 354.696C894.073 346.918 928.438 336.405 967.772 324.099C1046.44 299.486 1145 267.692 1241.45 236.241C1337.9 204.789 1432.24 173.679 1502.47 150.432C1537.58 138.808 1566.67 129.15 1586.97 122.398C1597.13 119.022 1605.09 116.373 1610.51 114.567C1613.22 113.664 1615.29 112.973 1616.69 112.506C1617.39 112.273 1617.92 112.097 1618.27 111.978C1618.45 111.919 1618.59 111.875 1618.68 111.845C1618.72 111.83 1618.75 111.819 1618.78 111.811C1618.79 111.807 1618.8 111.805 1618.8 111.803C1618.81 111.801 1618.81 111.8 1618.49 110.851ZM813.167 367.916L813.008 366.929C601.133 401.142 410.357 309.592 250.003 110.225L249.224 110.851L248.445 111.478C409.114 311.238 600.552 403.262 813.327 368.903L813.167 367.916ZM249.224 110.851C249.217 111.851 249.221 111.851 249.23 111.851C249.239 111.851 249.252 111.852 249.269 111.852C249.304 111.852 249.356 111.852 249.425 111.853C249.563 111.854 249.77 111.855 250.045 111.857C250.594 111.861 251.414 111.866 252.497 111.874C254.663 111.888 257.88 111.91 262.087 111.937C270.499 111.993 282.867 112.073 298.689 112.173C330.333 112.372 375.794 112.648 431.06 112.954C541.593 113.567 691.348 114.302 848.238 114.792C1162 115.772 1504.35 115.772 1618.53 111.851L1618.49 110.851L1618.46 109.852C1504.33 113.772 1162.03 113.772 848.244 112.792C691.356 112.302 541.603 111.567 431.071 110.954C375.805 110.648 330.345 110.372 298.702 110.173C282.88 110.073 270.512 109.993 262.1 109.937C257.894 109.91 254.676 109.888 252.511 109.874C251.428 109.866 250.608 109.861 250.059 109.857C249.784 109.855 249.577 109.854 249.439 109.853C249.37 109.852 249.318 109.852 249.283 109.852C249.266 109.852 249.253 109.851 249.244 109.851C249.235 109.851 249.231 109.851 249.224 110.851Z" fill="black" mask="url(#path-1-inside-1_732_707)"/>
</svg>
