<svg width="83" height="83" viewBox="0 0 83 83" fill="none" xmlns="http://www.w3.org/2000/svg">
<circle cx="41.5" cy="41.5" r="41.5" fill="#005AFF"/>
<g clip-path="url(#clip0_1446_11)">
<path d="M32.2552 30.7017C34.2218 30.7017 35.8218 29.1018 35.8218 27.1352C35.8218 25.1686 34.2218 23.5686 32.2552 23.5686C30.2886 23.5686 28.6885 25.1686 28.6885 27.1352C28.6885 29.1018 30.2885 30.7017 32.2552 30.7017ZM32.2552 24.9436C33.4636 24.9436 34.4468 25.9267 34.4468 27.1352C34.4468 28.3436 33.4636 29.3267 32.2552 29.3267C31.0467 29.3267 30.0635 28.3436 30.0635 27.1352C30.0635 25.9267 31.0466 24.9436 32.2552 24.9436ZM44.3176 31.7769C45.6381 31.7769 46.7125 30.7026 46.7125 29.382C46.7125 28.0614 45.6381 26.9871 44.3176 26.9871C42.9971 26.9871 41.9227 28.0614 41.9227 29.382C41.9227 30.7026 42.9971 31.7769 44.3176 31.7769ZM44.3176 28.3621C44.88 28.3621 45.3375 28.8196 45.3375 29.382C45.3375 29.9444 44.88 30.4019 44.3176 30.4019C43.7553 30.4019 43.2977 29.9444 43.2977 29.382C43.2977 28.8196 43.7553 28.3621 44.3176 28.3621ZM35.1343 36.8366H27.7927C27.413 36.8366 27.1052 37.1444 27.1052 37.5241V44.4598C27.1052 44.8395 27.413 45.1473 27.7927 45.1473H35.1343C35.5139 45.1473 35.8218 44.8395 35.8218 44.4598V37.5241C35.8218 37.1444 35.5139 36.8366 35.1343 36.8366ZM34.4468 43.7723H28.4802V38.2116H34.4468V43.7723ZM38.5608 37.5241C38.5608 37.1444 38.8686 36.8366 39.2483 36.8366H46.025C46.4047 36.8366 46.7125 37.1444 46.7125 37.5241C46.7125 37.9037 46.4047 38.2116 46.025 38.2116H39.2483C38.8686 38.2116 38.5608 37.9037 38.5608 37.5241ZM38.5608 40.992C38.5608 40.6123 38.8686 40.3045 39.2483 40.3045H46.025C46.4047 40.3045 46.7125 40.6123 46.7125 40.992C46.7125 41.3717 46.4047 41.6795 46.025 41.6795H39.2483C38.8686 41.6795 38.5608 41.3717 38.5608 40.992ZM59.2194 48.0383H59.2942V33.9456C59.2942 33.7047 59.1681 33.4813 58.9617 33.3569C58.7556 33.2324 58.4989 33.2252 58.2859 33.3375L53.2624 35.9881H51.7407V34.3644C51.7407 32.9483 50.5886 31.7962 49.1725 31.7962H48.5892C48.9941 31.0828 49.2266 30.2593 49.2266 29.3819C49.2266 26.6751 47.0244 24.473 44.3176 24.473C41.6109 24.473 39.4087 26.6751 39.4087 29.3819C39.4087 30.2592 39.6412 31.0828 40.046 31.7962H37.6777C38.7564 30.543 39.4108 28.9146 39.4108 27.1352C39.4108 23.1895 36.2007 19.9795 32.2551 19.9795C28.3095 19.9795 25.0993 23.1895 25.0993 27.1352C25.0993 28.9215 25.7588 30.5558 26.8452 31.8109C25.5572 31.9478 24.5504 33.0406 24.5504 34.3644V47.6196C24.5504 49.0356 25.7025 50.1877 27.1185 50.1877H27.9986V50.7598L20.341 50.4678C20.3322 50.4675 20.3235 50.4673 20.3148 50.4673C18.6193 50.4673 17.7322 51.6316 17.7322 52.7818C17.7322 53.932 18.6192 55.0964 20.3148 55.0964C20.331 55.0964 20.3473 55.0958 20.3635 55.0947L29.363 54.4546C30.5354 54.3712 31.4536 53.3853 31.4536 52.21V50.1877H34.0915V51.3147C34.0915 52.0373 34.6589 52.6282 35.3715 52.6693V62.334C35.3715 62.7137 35.6793 63.0215 36.059 63.0215H40.232C40.6117 63.0215 40.9195 62.7137 40.9195 62.334V57.9941C42.7505 61.0058 46.0633 63.0215 49.838 63.0215C55.5888 63.0215 60.2674 58.3429 60.2674 52.5922C60.2674 50.9604 59.8903 49.4151 59.2194 48.0384L59.2194 48.0383ZM54.1202 37.0902L57.9192 35.0857V46.0069C56.9019 44.7608 55.603 43.7532 54.1202 43.0828V37.0902ZM51.7407 37.3631H52.7452V42.5755C52.4166 42.48 52.0816 42.4002 51.7407 42.3372V37.3631ZM44.3176 25.8481C46.2663 25.8481 47.8516 27.4334 47.8516 29.382C47.8516 31.3306 46.2663 32.9159 44.3176 32.9159C42.369 32.9159 40.7837 31.3306 40.7837 29.382C40.7837 27.4334 42.369 25.8481 44.3176 25.8481ZM26.4744 27.1352C26.4744 23.9477 29.0677 21.3545 32.2552 21.3545C35.4427 21.3545 38.0359 23.9477 38.0359 27.1352C38.0359 30.3227 35.4427 32.9159 32.2552 32.9159C29.0677 32.9159 26.4744 30.3227 26.4744 27.1352ZM30.0787 52.2099C30.0787 52.667 29.7216 53.0505 29.2656 53.083L20.292 53.7212C19.4181 53.7126 19.1073 53.2114 19.1073 52.7818C19.1073 52.3522 19.4206 51.8469 20.3026 51.8423L28.0034 52.1359C28.359 52.1519 28.7112 52.0192 28.9686 51.7728C29.226 51.5265 29.3736 51.1809 29.3736 50.8246V48.0383C29.3736 47.6693 29.5945 47.6142 29.7261 47.6142C29.8578 47.6142 30.0787 47.6693 30.0787 48.0383V52.2099ZM39.5446 61.6465H36.7465V52.6732H39.4097C39.4139 53.2168 39.4598 53.7504 39.5446 54.2714V61.6465ZM39.4889 51.2983H35.4667V50.1877H39.6889C39.6029 50.5511 39.5357 50.9215 39.4889 51.2983ZM40.1177 48.8126H31.4538V48.0383C31.4538 46.8698 30.5638 46.2392 29.7262 46.2392C28.8887 46.2392 27.9987 46.8697 27.9987 48.0383V48.8126H27.1186C26.4608 48.8126 25.9255 48.2774 25.9255 47.6195V34.3643C25.9255 33.7064 26.4608 33.1712 27.1186 33.1712H28.405V33.162C29.5176 33.8752 30.8383 34.2908 32.2552 34.2908C33.672 34.2908 34.9814 33.8789 36.0909 33.1712H41.2004C42.0488 33.8704 43.135 34.2908 44.3176 34.2908C45.5002 34.2908 46.5865 33.8703 47.4348 33.1712H49.1725C49.8303 33.1712 50.3657 33.7065 50.3657 34.3644V42.176C50.1909 42.1673 50.015 42.1628 49.8381 42.1628C47.7954 42.1628 45.8885 42.7535 44.278 43.7724H39.2483C38.8686 43.7724 38.5608 44.0802 38.5608 44.4599C38.5608 44.8396 38.8686 45.1474 39.2483 45.1474H42.5422C41.4936 46.1752 40.6605 47.4217 40.1178 48.8127L40.1177 48.8126ZM49.8381 61.6465C44.8455 61.6465 40.7837 57.5846 40.7837 52.5921C40.7837 47.5995 44.8455 43.5377 49.8381 43.5377C54.8306 43.5377 58.8925 47.5995 58.8925 52.5921C58.8925 57.5847 54.8306 61.6465 49.8381 61.6465ZM52.5239 48.9147C52.4648 48.9147 52.4129 48.877 52.3946 48.8208L51.275 45.3752C51.069 44.741 50.505 44.3313 49.8381 44.3313C49.1712 44.3313 48.6072 44.7411 48.4011 45.3752L47.2816 48.8207C47.2633 48.8769 47.2114 48.9147 47.1523 48.9147H43.5294C42.8625 48.9147 42.2986 49.3246 42.0924 49.9587C41.8865 50.5929 42.1018 51.256 42.6413 51.648L45.5722 53.7774C45.6201 53.8121 45.6399 53.8733 45.6216 53.9294L44.5021 57.375C44.2961 58.0092 44.5115 58.6723 45.051 59.0643C45.5907 59.4564 46.2879 59.4563 46.8273 59.0643L49.7582 56.9349C49.806 56.9001 49.8701 56.9001 49.9179 56.9349L52.8488 59.0643C53.1187 59.2603 53.4277 59.3583 53.7369 59.3583C54.0461 59.3583 54.3553 59.2602 54.6251 59.0643C55.1645 58.6723 55.3799 58.0092 55.1739 57.375L54.0544 53.9296C54.0362 53.8734 54.0561 53.8122 54.1038 53.7775L57.0347 51.6481C57.5742 51.2561 57.7896 50.593 57.5836 49.9588C57.3776 49.3246 56.8135 48.9148 56.1467 48.9148H52.5238L52.5239 48.9147ZM56.276 50.3837C56.3064 50.4776 56.2485 50.5198 56.2267 50.5357L53.2956 52.6652C52.7645 53.0512 52.544 53.73 52.7468 54.3545L53.8663 57.8C53.8747 57.8257 53.8968 57.894 53.8169 57.952C53.737 58.0101 53.679 57.9678 53.6571 57.952L50.7262 55.8226C50.4606 55.6295 50.1494 55.5331 49.8382 55.5331C49.5269 55.5331 49.2157 55.6296 48.9501 55.8226L46.0192 57.952C45.9974 57.9678 45.9393 58.0101 45.8594 57.952C45.7794 57.894 45.8017 57.8257 45.81 57.8L46.9295 54.3544C47.1323 53.73 46.9118 53.0512 46.3806 52.6652L43.4497 50.5358C43.4278 50.5199 43.3698 50.4778 43.4003 50.3837C43.4308 50.2898 43.5025 50.2898 43.5296 50.2898H47.1524C47.809 50.2898 48.3864 49.8703 48.5895 49.2458L49.709 45.8003C49.7174 45.7746 49.7395 45.7063 49.8383 45.7063C49.937 45.7063 49.9591 45.7746 49.9675 45.8003L51.087 49.2459C51.29 49.8704 51.8675 50.2898 52.5241 50.2898H56.1469C56.1739 50.2898 56.2456 50.2898 56.2762 50.3837L56.276 50.3837Z" fill="white"/>
</g>
<defs>
<clipPath id="clip0_1446_11">
<rect width="44" height="44" fill="white" transform="translate(17 19.5)"/>
</clipPath>
</defs>
</svg>
