<svg width="145" height="145" viewBox="0 0 145 145" fill="none" xmlns="http://www.w3.org/2000/svg">
<path d="M54.6082 45.6216L97.5735 69.7928C97.9649 70.0133 98.2906 70.3339 98.5173 70.7217C98.7439 71.1096 98.8634 71.5507 98.8634 71.9999C98.8634 72.4492 98.7439 72.8903 98.5173 73.2782C98.2906 73.666 97.9649 73.9866 97.5735 74.2071L54.6082 98.3783C54.2225 98.595 53.7868 98.7071 53.3445 98.7031C52.9021 98.6992 52.4685 98.5796 52.0867 98.356C51.705 98.1325 51.3884 97.8129 51.1685 97.429C50.9487 97.0451 50.8332 96.6103 50.8335 96.1679V47.8319C50.8337 47.3898 50.9496 46.9555 51.1697 46.572C51.3898 46.1886 51.7064 45.8694 52.0881 45.6462C52.4697 45.4231 52.9032 45.3037 53.3453 45.2999C53.7874 45.2961 54.2228 45.405 54.6082 45.6216Z" fill="white"/>
<circle cx="72.5" cy="72.5" r="71" stroke="white" stroke-width="3"/>
</svg>
