<svg width="77" height="39" viewBox="0 0 77 39" fill="none" xmlns="http://www.w3.org/2000/svg">
<path d="M71.0564 5.81362C70.5664 5.84054 69.3431 6.23963 69.3431 6.23963L74.057 3.8024C74.057 3.8024 71.6411 1.90812 69.3106 3.02557C68.8902 3.22697 68.1412 3.83767 67.5008 4.36669L70.7687 0.120569C70.7687 0.120569 66.7462 -0.688747 65.5007 1.88677C65.446 2 62.282 8.94323 62.282 8.94323L63.4255 8.92745L75.4065 8.91724C75.4065 8.91724 73.5568 5.67533 71.0564 5.81362ZM68.7361 4.30265C69.8536 3.47292 70.9812 3.04691 72.5349 3.84509L69.1389 5.47486C69.1389 5.47486 65.6724 7.21044 65.432 7.28005C65.432 7.28005 68.4094 4.54396 68.7361 4.30173M66.2033 2.23946C66.6182 1.39766 67.8739 0.663518 69.3366 0.774892L67.1333 3.68639C67.1333 3.68639 64.6441 6.93571 64.4965 7.07029L65.0524 5.53983C65.0524 5.53983 66.0594 2.52903 66.2033 2.23853M65.6362 8.27406C65.6362 8.27406 70.0902 6.78814 70.4977 6.72225C71.7794 6.51528 72.9331 7.06936 73.902 8.27406C73.902 8.27406 67.0145 8.22672 65.6362 8.27406Z" fill="white"/>
<path d="M20.0844 11.0109V8.91247H0V14.4737H6.86898V31.8109H13.2145V14.4737H17.0086C17.7957 13.1846 18.8398 11.9029 20.0835 11.0109" fill="white"/>
<path d="M38.4499 14.6816C36.4795 11.2392 32.704 8.93101 28.1228 8.93101C21.3411 8.93101 16.2541 14.0486 16.2541 20.3598V20.4229C16.2541 26.7332 21.2779 31.7886 28.0597 31.7886C32.6529 31.7886 36.4656 29.4405 38.4499 25.9647V14.6807V14.6816ZM33.711 20.4229C33.711 23.5934 31.4816 26.2942 28.1219 26.2942C24.7621 26.2942 22.5012 23.5312 22.5012 20.3598V20.2976C22.5012 17.1263 24.7305 14.4264 28.0587 14.4264C31.387 14.4264 33.71 17.1894 33.71 20.3607V20.4238L33.711 20.4229Z" fill="white"/>
<path d="M77 14.3104V8.91247H58.1834V11.1195C59.4624 12.4207 60.0851 14.5257 60.0851 16.7309V16.7959C60.0851 18.9352 59.3798 21.2453 58.1834 22.6049V27.5778L61.0754 31.81H76.9406V26.413H64.6413V22.7822H75.632V17.7769H64.6413V14.3095H77V14.3104Z" fill="white"/>
<path d="M39.1395 8.91276H50.3223C53.8222 8.91276 55.9263 9.77405 57.4642 11.3435C58.8053 12.6521 59.4531 14.4731 59.4531 16.7303V16.7952C59.4531 20.2952 57.5727 22.9087 54.7262 24.119L60.2058 31.8093H52.8783L48.2665 24.8745H45.4859V31.8093H39.1404V8.91183L39.1395 8.91276ZM49.6717 19.9035C51.8305 19.9035 53.0732 18.8566 53.0732 17.1888V17.1238C53.0732 15.3242 51.7646 14.4091 49.6383 14.4091H45.4841V19.9044H49.6708L49.6717 19.9035Z" fill="white"/>
<path d="M54.9796 36.8663L52.9935 34.8792V38.8525L54.9796 36.8663Z" fill="white"/>
<path d="M57.3445 35.3418V36.1892H59.2174V36.9688H57.3445V38.489H56.4804V34.5622H59.4699V35.3418H57.3436H57.3445Z" fill="white"/>
<path d="M60.1993 38.489V34.5622H61.0634V38.489H60.1993Z" fill="white"/>
<path d="M62.0454 38.489V34.5622H62.9095V37.7085H64.8668V38.4881H62.0454V38.489Z" fill="white"/>
<path d="M68.5914 38.489V35.9256L67.486 37.6027H67.4637L66.3704 35.9423V38.489H65.5175V34.5622H66.4484L67.4804 36.2226L68.5125 34.5622H69.4434V38.489H68.5904H68.5914Z" fill="white"/>
<path d="M70.3853 38.489V34.5622H73.3414V35.3306H71.2383V36.127H73.0889V36.8954H71.2383V37.7196H73.3702V38.4881H70.3863L70.3853 38.489Z" fill="white"/>
<path d="M76.8766 37.8465C76.8061 37.9978 76.7077 38.1249 76.5815 38.228C76.4552 38.331 76.304 38.4089 76.1295 38.4637C75.9541 38.5175 75.7601 38.5454 75.5466 38.5454C75.2478 38.5454 74.9535 38.4943 74.6658 38.3913C74.3781 38.2883 74.1164 38.1305 73.8806 37.917L74.3911 37.3054C74.5702 37.4511 74.7549 37.5671 74.9433 37.6535C75.1317 37.7398 75.3387 37.7825 75.5633 37.7825C75.7424 37.7825 75.8817 37.75 75.981 37.6841C76.0803 37.6191 76.1295 37.5282 76.1295 37.4122V37.401C76.1295 37.3453 76.1193 37.2952 76.0988 37.2525C76.0784 37.2098 76.0385 37.169 75.981 37.1319C75.9225 37.0947 75.8427 37.0567 75.7397 37.0196C75.6366 36.9824 75.5021 36.9435 75.3378 36.9017C75.1392 36.8534 74.9591 36.7987 74.7976 36.7393C74.6361 36.6799 74.4997 36.6056 74.3874 36.5175C74.2751 36.4293 74.1878 36.3207 74.1257 36.1889C74.0635 36.058 74.0329 35.8956 74.0329 35.7007V35.6896C74.0329 35.5104 74.0663 35.348 74.1331 35.2042C74.1999 35.0603 74.2937 34.9359 74.4143 34.8311C74.535 34.7262 74.6797 34.6464 74.8468 34.5898C75.0139 34.5331 75.1995 34.5053 75.4009 34.5053C75.6886 34.5053 75.9531 34.548 76.1944 34.6343C76.4357 34.7206 76.6576 34.8441 76.859 35.0046L76.4098 35.6552C76.2343 35.5355 76.0617 35.4408 75.8937 35.3722C75.7257 35.3025 75.5568 35.2682 75.3888 35.2682C75.2208 35.2682 75.0946 35.3007 75.0102 35.3666C74.9257 35.4325 74.8839 35.5132 74.8839 35.6107V35.6218C74.8839 35.6859 74.896 35.7406 74.9201 35.787C74.9443 35.8334 74.9888 35.8761 75.0519 35.9132C75.116 35.9504 75.2032 35.9866 75.3137 36.02C75.4241 36.0534 75.5642 36.0933 75.7332 36.1379C75.9318 36.1898 76.109 36.2492 76.265 36.3142C76.4209 36.3801 76.5518 36.4581 76.6585 36.5499C76.7652 36.6418 76.846 36.7495 76.9007 36.8729C76.9555 36.9964 76.9824 37.1439 76.9824 37.3156V37.3268C76.9824 37.5217 76.9471 37.6943 76.8766 37.8456V37.8465Z" fill="white"/>
</svg>
