<svg xmlns="http://www.w3.org/2000/svg" width="457" height="1207" fill="none" viewBox="0 0 457 1207"><path fill="#0e0e0e" d="M534.49 806.701c2.475-45.054 39.167-157.518 39.167-157.518L349.582 1082.57s-174.156-222.112-71.42-436.374c18.517-38.654 74.663-107.514 123.3-166.391L11.082 780.249s-74.407-369.816 162.381-484.328C183.873 290.887 822.22 0 822.22 0l-1.451 105.125-.938 1101.515S521.776 1036.58 534.49 806.701M395.575 593.378c-76.284 102.736-115.45 206.411-42.067 349.252l149.837-312.219S662.911 311.707 669.31 289.607c0 0-251.55 273.736-273.82 303.771M205.888 360.515C128.495 398.657 61 514.107 71.239 648.586l267.677-202.571s298.737-228.853 311.11-242.42l-140.708 51.112s-276.807 92.582-303.515 105.808m554.895-52.136s-136.612 409.494-142.67 446.954c-19.029 117.839 31.913 223.903 142.67 312.987 0 0-4.352-633.227 0-759.941"/></svg>