<svg width="299" height="687" viewBox="0 0 299 687" fill="none" xmlns="http://www.w3.org/2000/svg">
<path d="M-224.373 4.39746C-179.892 -0.183945 -138.378 1.3995 -107.979 4.13086C-92.7813 5.49631 -80.3677 7.14844 -71.7578 8.45801C-67.4533 9.11273 -64.1 9.68196 -61.8252 10.0869C-61.4346 10.1564 -61.0763 10.2238 -60.75 10.2832L-310.291 334.524L-308.146 336.596C-283.548 316.276 -256.887 294.405 -232.343 275.683C-207.77 256.939 -185.421 241.431 -169.427 233.77V233.769C-80.4271 191.094 10.264 205.894 78.8389 231.469C113.115 244.252 141.822 259.712 161.958 271.977C172.025 278.108 179.946 283.439 185.347 287.233C188.047 289.131 190.117 290.644 191.51 291.681C191.587 291.738 191.661 291.795 191.733 291.85L-168.269 477.982L-167.114 480.74L-167.579 479.314L-167.113 480.74C-167.113 480.74 -167.112 480.74 -167.11 480.739C-167.108 480.738 -167.103 480.737 -167.098 480.735C-167.086 480.732 -167.069 480.726 -167.047 480.719C-167.002 480.704 -166.935 480.682 -166.846 480.653C-166.668 480.596 -166.402 480.51 -166.055 480.397C-165.359 480.173 -164.332 479.843 -163.013 479.423C-160.373 478.582 -156.56 477.377 -151.865 475.925C-142.476 473.021 -129.566 469.129 -115.483 465.172C-87.2545 457.24 -54.5133 449.11 -35.8848 448.087H-35.8838C59.4831 442.812 142.62 502.015 202.069 562.861C231.765 593.254 255.478 623.985 271.769 647.121C279.913 658.687 286.199 668.352 290.447 675.121C292.571 678.505 294.185 681.166 295.268 682.979C295.378 683.163 295.48 683.339 295.579 683.506L-622.164 684.288H-622.184L-707.653 685.467C-707.212 684.499 -706.626 683.215 -705.904 681.63C-704.123 677.721 -701.511 671.987 -698.184 664.687C-691.53 650.085 -682.018 629.217 -670.593 604.147C-647.741 554.009 -617.229 487.066 -586.585 419.852C-525.288 285.404 -463.488 149.918 -461.395 145.589C-413.898 47.3751 -313.404 13.5673 -224.373 4.39746Z" stroke="white" stroke-width="3"/>
</svg>
