<svg width="25" height="25" viewBox="0 0 25 25" fill="none" xmlns="http://www.w3.org/2000/svg">
<path d="M12.5012 2.08334C18.2543 2.08334 22.9178 6.74688 22.9178 12.5C22.9178 18.2531 18.2543 22.9167 12.5012 22.9167C10.6603 22.9198 8.85176 22.4327 7.26157 21.5052L2.08866 22.9167L3.49699 17.7417C2.56882 16.151 2.08126 14.3417 2.08449 12.5C2.08449 6.74688 6.74803 2.08334 12.5012 2.08334ZM8.95116 7.60417L8.74282 7.6125C8.60812 7.62178 8.47652 7.65716 8.35532 7.71667C8.24238 7.78074 8.13924 7.86073 8.04907 7.95417C7.92407 8.07188 7.85324 8.17396 7.7772 8.27292C7.39191 8.77386 7.18446 9.38887 7.18761 10.0208C7.1897 10.5313 7.32303 11.0281 7.53136 11.4927C7.95741 12.4323 8.65845 13.4271 9.58345 14.349C9.80636 14.5708 10.0251 14.7938 10.2605 15.001C11.4099 16.0129 12.7796 16.7427 14.2605 17.1323L14.8522 17.2229C15.0449 17.2333 15.2376 17.2188 15.4314 17.2094C15.7347 17.1934 16.0308 17.1113 16.2991 16.9688C16.4354 16.8983 16.5685 16.8218 16.698 16.7396C16.698 16.7396 16.7421 16.7097 16.8282 16.6458C16.9689 16.5417 17.0553 16.4677 17.172 16.3458C17.2595 16.2556 17.3324 16.1507 17.3907 16.0313C17.472 15.8615 17.5532 15.5375 17.5866 15.2677C17.6116 15.0615 17.6043 14.949 17.6012 14.8792C17.597 14.7677 17.5043 14.6521 17.4032 14.6031L16.797 14.3313C16.797 14.3313 15.8907 13.9365 15.3366 13.6844C15.2786 13.6591 15.2164 13.6447 15.1532 13.6417C15.082 13.6342 15.0099 13.6422 14.942 13.665C14.874 13.6878 14.8118 13.725 14.7595 13.774C14.7543 13.7719 14.6845 13.8313 13.9314 14.7438C13.8881 14.8018 13.8286 14.8457 13.7603 14.8699C13.6921 14.894 13.6181 14.8972 13.548 14.8792C13.4801 14.8611 13.4136 14.8381 13.3491 14.8104C13.2199 14.7563 13.1751 14.7354 13.0866 14.6979C12.4885 14.4374 11.9349 14.0849 11.4459 13.6531C11.3147 13.5385 11.1928 13.4135 11.0678 13.2927C10.658 12.9002 10.3009 12.4562 10.0053 11.9719L9.94386 11.8729C9.90039 11.806 9.86474 11.7344 9.83761 11.6594C9.79803 11.5063 9.90115 11.3833 9.90115 11.3833C9.90115 11.3833 10.1543 11.1063 10.272 10.9563C10.3866 10.8104 10.4834 10.6688 10.5459 10.5677C10.6689 10.3698 10.7074 10.1667 10.6428 10.0094C10.3512 9.29688 10.0498 8.5882 9.73866 7.88334C9.6772 7.74375 9.49491 7.64375 9.32928 7.62396C9.27303 7.61702 9.21678 7.61146 9.16053 7.60729C9.02066 7.59927 8.88042 7.60066 8.74074 7.61146L8.95116 7.60417Z" fill="white"/>
</svg>
